<?xml version="1.0" encoding="utf-8"?>
<!-- Generator: Adobe Illustrator 26.3.1, SVG Export Plug-In . SVG Version: 6.00 Build 0)  -->
<svg version="1.1" id="Warstwa_1" xmlns="http://www.w3.org/2000/svg" xmlns:xlink="http://www.w3.org/1999/xlink" x="0px" y="0px"
	 viewBox="0 0 300 300" style="enable-background:new 0 0 300 300;" xml:space="preserve">
<style type="text/css">
	.st0{fill:#EF7E8F;}
</style>
<path class="st0" d="M150.32,85.97c-35.31-0.18-64.17,28.4-64.35,63.71c-0.18,35.31,28.4,64.17,63.71,64.35
	c35.31,0.18,64.17-28.4,64.35-63.71C214.2,115.01,185.62,86.15,150.32,85.97z M149.71,209.25c-32.67-0.16-59.12-26.87-58.95-59.54
	c0.16-32.67,26.87-59.11,59.54-58.95c32.67,0.16,59.12,26.87,58.95,59.54C209.08,182.96,182.37,209.41,149.71,209.25z
	 M232.91,181.98l1.44,0.58c0.12,0.05,0.24,0.09,0.36,0.14c0.31,0.12,0.66,0.26,1.07,0.39l1.32,0.41l0.06,0.02
	c0.12,0.04,0.25,0.07,0.37,0.11c0.33,0.1,0.7,0.21,1.09,0.29l1.66,0.35c0.35,0.07,0.69,0.14,1.04,0.2l1.35,0.17
	c1.5,0.21,2.86,0.24,4.19,0.27c0.31,0.01,0.61,0.01,0.92,0.02l0.06,0l0.06,0c3.93-0.1,7.14-0.54,10.13-1.39l1.18-0.35
	c0.35-0.11,0.66-0.23,0.94-0.34c0.11-0.04,0.21-0.08,0.32-0.12l1.15-0.45l1.15-0.54c0.66-0.3,1.22-0.62,1.77-0.92l0.36-0.2
	c0.46-0.26,0.87-0.51,1.26-0.75c0.19-0.12,0.38-0.24,0.58-0.35l0.05-0.03c2.1-1.32,3.91-2.47,6.04-3.21
	c1.88-0.67,4.13-1.08,6.89-1.24L290,174.4l-9.55-3.97c-3.12-1.3-5.83-2.05-8.54-2.37l-1.08-0.12c-0.33-0.03-0.64-0.04-0.9-0.05
	c-0.1,0-0.21,0-0.36-0.01l-1.17-0.03l-1.15,0.04c-1.26,0.05-2.44,0.17-3.58,0.29l-0.73,0.08c-1.17,0.11-2.38,0.22-3.4,0.19
	l-0.74-0.01l-0.68-0.07c-0.11-0.01-0.22-0.02-0.33-0.03c-0.09-0.01-0.17-0.01-0.25-0.03l-0.75-0.15c-1.55-0.32-3.2-0.91-5.35-1.92
	c-1.79-0.91-3.14-1.86-4.03-2.82c-0.6-0.64-1.08-1.32-1.74-2.25c-0.44-0.62-0.93-1.32-1.56-2.15l-0.84-1.04
	c-0.2-0.25-0.42-0.53-0.7-0.83l-0.3-0.33c-0.48-0.53-0.97-1.09-1.6-1.68l-1.01-0.97l-0.09-0.09c-0.38-0.33-0.77-0.66-1.19-1
	c-0.11-0.09-0.21-0.17-0.32-0.26c-0.28-0.23-0.6-0.5-0.97-0.77l-0.85-0.6c0.41,0.05,0.83,0.09,1.3,0.13l1.32,0.11l1.55,0.06
	c0.13,0,0.26,0.01,0.39,0.01c0.33,0.01,0.71,0.02,1.13,0l1.38-0.07l0.06,0c0.13-0.01,0.26-0.02,0.39-0.02
	c0.34-0.02,0.73-0.04,1.12-0.1l1.68-0.24c0.35-0.05,0.7-0.1,1.05-0.17l1.32-0.31c1.48-0.31,2.78-0.75,4.03-1.18
	c0.29-0.1,0.58-0.2,0.86-0.29l0.12-0.04c3.61-1.41,6.56-2.97,9.04-4.78l0.99-0.73c0.29-0.22,0.54-0.44,0.76-0.64
	c0.09-0.08,0.17-0.15,0.26-0.23l0.92-0.82l0.9-0.9c0.52-0.51,0.94-1,1.35-1.47l0.26-0.31c0.35-0.4,0.64-0.77,0.93-1.14
	c0.14-0.18,0.28-0.35,0.42-0.53l0.04-0.05c1.52-1.96,2.83-3.66,4.58-5.08c1.53-1.27,3.51-2.42,6.04-3.52l9.48-4.12l-10.33-0.46
	c-3.38-0.15-6.18,0.07-8.84,0.69l-1.06,0.26c-0.32,0.08-0.61,0.18-0.86,0.26c-0.1,0.03-0.2,0.07-0.3,0.1l-1.08,0.37l-1.14,0.46
	c-1.17,0.48-2.24,1-3.27,1.5l-0.66,0.32c-1.06,0.5-2.16,1.02-3.13,1.34l-0.7,0.24l-0.66,0.17c-0.11,0.03-0.22,0.05-0.33,0.08
	c-0.08,0.02-0.17,0.05-0.25,0.06l-0.75,0.12c-1.57,0.23-3.32,0.24-5.68,0.02c-1.99-0.25-3.58-0.67-4.75-1.28
	c-0.79-0.4-1.47-0.87-2.41-1.52c-0.62-0.43-1.33-0.92-2.2-1.48l-1.15-0.7c-0.27-0.16-0.57-0.35-0.94-0.54l-0.39-0.21
	c-0.63-0.34-1.29-0.69-2.08-1.03l-1.28-0.57l-0.12-0.05c-0.47-0.18-0.95-0.35-1.46-0.54c-0.13-0.04-0.26-0.09-0.39-0.14
	c-0.34-0.12-0.74-0.26-1.18-0.39l-1.01-0.27c0.4-0.09,0.82-0.2,1.26-0.32l1.28-0.34l1.47-0.48c0.12-0.04,0.24-0.08,0.37-0.12
	c0.32-0.11,0.68-0.23,1.07-0.39l1.27-0.53l0.05-0.02c0.12-0.05,0.24-0.1,0.36-0.15c0.32-0.13,0.67-0.29,1.02-0.47l1.5-0.8
	c0.31-0.17,0.62-0.34,0.92-0.51l1.14-0.74c1.28-0.8,2.35-1.66,3.38-2.49c0.24-0.19,0.47-0.38,0.71-0.57l0.09-0.08
	c2.95-2.6,5.13-5,6.86-7.58l0.68-1.03c0.2-0.3,0.36-0.6,0.5-0.86c0.06-0.1,0.11-0.2,0.17-0.3l0.59-1.08l0.53-1.16
	c0.31-0.65,0.54-1.26,0.76-1.84l0.15-0.38c0.19-0.49,0.34-0.95,0.49-1.39c0.07-0.21,0.14-0.42,0.22-0.64l0.02-0.06
	c0.76-2.36,1.41-4.41,2.56-6.34c1.01-1.72,2.47-3.48,4.47-5.38l7.5-7.11l-9.86,3.1c-3.23,1.01-5.78,2.18-8.07,3.68l-0.91,0.61
	c-0.28,0.19-0.51,0.38-0.72,0.54c-0.08,0.07-0.16,0.13-0.28,0.23l-0.85,0.68l-0.91,0.82c-0.93,0.85-1.76,1.7-2.56,2.52l-0.51,0.53
	c-0.83,0.83-1.68,1.7-2.48,2.33l-0.57,0.46l-0.57,0.38c-0.1,0.06-0.19,0.13-0.28,0.19c-0.07,0.05-0.14,0.1-0.21,0.14l-0.67,0.37
	c-1.39,0.75-3.04,1.36-5.33,1.96c-1.96,0.45-3.6,0.59-4.9,0.43c-0.87-0.1-1.67-0.31-2.78-0.61c-0.73-0.19-1.56-0.41-2.58-0.64
	l-1.31-0.26c-0.31-0.06-0.66-0.13-1.07-0.18l-0.44-0.06c-0.71-0.1-1.44-0.21-2.3-0.26l-1.39-0.1l-0.12-0.01
	c-0.5-0.01-1.02-0.01-1.56,0c-0.14,0-0.27,0-0.41,0c-0.37,0-0.78,0-1.24,0.04l-1.04,0.09c0.34-0.23,0.7-0.46,1.08-0.73l1.08-0.76
	l1.22-0.95c0.1-0.08,0.2-0.16,0.31-0.24c0.26-0.21,0.56-0.44,0.87-0.72l1.01-0.93l0.04-0.04c0.09-0.09,0.19-0.18,0.28-0.27
	c0.25-0.23,0.54-0.5,0.8-0.8l1.13-1.26c0.24-0.27,0.47-0.53,0.69-0.8l0.82-1.08c0.93-1.19,1.64-2.36,2.32-3.49
	c0.16-0.26,0.32-0.52,0.47-0.78l0.06-0.11c1.88-3.45,3.11-6.45,3.86-9.47l0.28-1.2c0.08-0.35,0.13-0.68,0.17-0.98
	c0.02-0.11,0.03-0.23,0.05-0.34l0.18-1.22l0.11-1.27c0.07-0.72,0.08-1.37,0.09-2l0.01-0.4c0.01-0.53,0-1.01-0.02-1.47
	c-0.01-0.22-0.01-0.45-0.02-0.68l0-0.06c-0.1-2.48-0.18-4.62,0.24-6.83c0.36-1.96,1.13-4.11,2.37-6.59l4.62-9.25l-8.21,6.28
	c-2.68,2.06-4.69,4.02-6.32,6.21l-0.64,0.88c-0.2,0.27-0.35,0.53-0.49,0.76c-0.05,0.09-0.11,0.18-0.19,0.31l-0.57,0.93l-0.58,1.08
	c-0.59,1.12-1.07,2.2-1.54,3.25l-0.3,0.67c-0.49,1.07-1,2.17-1.53,3.04L220.37,65l-0.4,0.55c-0.07,0.09-0.13,0.18-0.2,0.27
	c-0.05,0.07-0.1,0.14-0.15,0.2l-0.5,0.57c-1.05,1.19-2.39,2.32-4.34,3.67c-1.68,1.09-3.18,1.79-4.46,2.08
	c-0.86,0.2-1.68,0.28-2.82,0.38c-0.75,0.07-1.61,0.15-2.64,0.28l-1.32,0.2c-0.31,0.05-0.66,0.1-1.07,0.19l-0.44,0.09
	c-0.7,0.15-1.43,0.3-2.25,0.55l-1.34,0.39l-0.12,0.04c-0.48,0.16-0.96,0.34-1.47,0.53c-0.13,0.05-0.26,0.1-0.39,0.14
	c-0.34,0.13-0.73,0.27-1.15,0.46l-0.95,0.44c0.25-0.33,0.5-0.68,0.76-1.06l0.76-1.09l0.82-1.31c0.07-0.11,0.14-0.22,0.2-0.33
	c0.17-0.28,0.37-0.6,0.57-0.98l0.63-1.22l0.03-0.05c0.06-0.12,0.12-0.23,0.17-0.35c0.16-0.31,0.33-0.65,0.48-1.02l0.63-1.57
	c0.13-0.33,0.26-0.66,0.38-0.99l0.4-1.3c0.47-1.44,0.73-2.78,0.99-4.08c0.06-0.3,0.12-0.6,0.18-0.9l0.02-0.12
	c0.58-3.84,0.71-7.17,0.39-10.22l-0.14-1.22c-0.04-0.36-0.11-0.69-0.17-0.98c-0.02-0.11-0.05-0.23-0.07-0.34l-0.25-1.21l-0.33-1.23
	c-0.18-0.7-0.39-1.31-0.6-1.9l-0.13-0.39c-0.17-0.5-0.35-0.94-0.52-1.37c-0.08-0.21-0.16-0.42-0.25-0.63l-0.02-0.06
	c-0.94-2.3-1.75-4.28-2.11-6.5c-0.33-1.97-0.34-4.25-0.03-7l1.17-10.27l-5.56,8.71c-1.82,2.85-3.03,5.38-3.82,8l-0.3,1.05
	c-0.09,0.32-0.15,0.62-0.2,0.88c-0.02,0.1-0.04,0.2-0.07,0.35l-0.21,1.07l-0.17,1.21c-0.17,1.25-0.25,2.44-0.34,3.58l-0.05,0.73
	c-0.1,1.17-0.2,2.38-0.4,3.38l-0.14,0.72l-0.19,0.66c-0.03,0.11-0.06,0.22-0.09,0.32c-0.02,0.08-0.04,0.17-0.07,0.25l-0.27,0.71
	c-0.58,1.48-1.45,3-2.82,4.93c-1.21,1.6-2.38,2.76-3.48,3.47c-0.74,0.48-1.48,0.84-2.52,1.32c-0.68,0.32-1.46,0.69-2.39,1.17
	l-1.17,0.64c-0.28,0.15-0.59,0.32-0.94,0.55l-0.38,0.24c-0.61,0.38-1.24,0.77-1.93,1.28l-1.13,0.82l-0.1,0.08
	c-0.39,0.32-0.78,0.65-1.2,1c-0.1,0.09-0.21,0.18-0.31,0.27c-0.28,0.24-0.59,0.5-0.92,0.82l-0.74,0.74
	c0.12-0.39,0.24-0.81,0.36-1.25l0.34-1.28l0.32-1.52c0.02-0.13,0.05-0.26,0.08-0.38c0.07-0.33,0.14-0.7,0.2-1.12l0.17-1.37
	l0.01-0.06c0.01-0.13,0.03-0.26,0.05-0.38c0.04-0.34,0.09-0.73,0.1-1.13l0.06-1.7c0.01-0.35,0.02-0.71,0.02-1.05l-0.07-1.35
	c-0.05-1.51-0.26-2.86-0.47-4.17c-0.05-0.3-0.09-0.6-0.14-0.9l-0.02-0.12c-0.78-3.86-1.77-6.94-3.13-9.73l-0.55-1.1
	c-0.16-0.32-0.34-0.61-0.49-0.86c-0.06-0.1-0.12-0.2-0.18-0.3l-0.65-1.05l-0.73-1.04c-0.41-0.6-0.82-1.1-1.21-1.58l-0.26-0.32
	c-0.33-0.41-0.65-0.77-0.96-1.12c-0.15-0.17-0.3-0.33-0.45-0.51l-0.04-0.04c-1.67-1.84-3.11-3.42-4.21-5.39
	c-0.99-1.73-1.78-3.88-2.42-6.56l-2.41-10.05l-2.25,10.09c-0.74,3.3-1.01,6.1-0.85,8.82l0.07,1.09c0.02,0.33,0.07,0.63,0.11,0.89
	c0.02,0.1,0.03,0.21,0.05,0.31l0.17,1.13l0.26,1.2c0.27,1.23,0.59,2.37,0.91,3.48l0.2,0.71c0.31,1.13,0.63,2.3,0.78,3.31l0.11,0.73
	l0.05,0.68c0.01,0.11,0.02,0.22,0.02,0.33c0.01,0.09,0.02,0.17,0.02,0.26l-0.01,0.76c-0.04,1.59-0.34,3.31-0.96,5.6
	c-0.59,1.92-1.29,3.41-2.08,4.45c-0.53,0.7-1.11,1.29-1.92,2.11c-0.53,0.54-1.14,1.15-1.84,1.91l-0.88,1.01
	c-0.21,0.24-0.44,0.5-0.69,0.83l-0.28,0.35c-0.44,0.56-0.9,1.15-1.37,1.87l-0.78,1.16l-0.07,0.11c-0.26,0.43-0.51,0.88-0.78,1.35
	c-0.07,0.12-0.13,0.24-0.2,0.36c-0.18,0.32-0.39,0.68-0.59,1.09l-0.44,0.94c-0.02-0.41-0.05-0.84-0.1-1.3l-0.12-1.32l-0.21-1.54
	c-0.02-0.13-0.04-0.26-0.06-0.39c-0.05-0.33-0.1-0.7-0.19-1.11l-0.3-1.34l-0.01-0.06c-0.03-0.13-0.06-0.25-0.09-0.38
	c-0.08-0.33-0.16-0.71-0.29-1.09l-0.53-1.62c-0.11-0.34-0.22-0.67-0.34-0.99l-0.53-1.25c-0.56-1.4-1.22-2.6-1.86-3.76
	c-0.15-0.27-0.29-0.53-0.44-0.8l-0.06-0.11c-2.02-3.31-4.07-5.95-6.27-8.08l-0.9-0.84c-0.26-0.25-0.53-0.46-0.76-0.64
	c-0.09-0.07-0.18-0.14-0.31-0.25l-0.93-0.74l-1.05-0.73c-0.59-0.42-1.15-0.75-1.68-1.07l-0.35-0.21c-0.45-0.27-0.87-0.5-1.28-0.72
	c-0.2-0.11-0.39-0.21-0.59-0.32l-0.05-0.03c-2.2-1.16-4.09-2.15-5.8-3.63c-1.52-1.29-3-3.04-4.52-5.34l-5.7-8.62l1.34,10.25
	c0.44,3.35,1.14,6.07,2.22,8.58l0.44,1c0.14,0.3,0.28,0.57,0.41,0.8c0.05,0.09,0.1,0.18,0.15,0.28l0.55,1l0.65,1.04
	c0.67,1.07,1.37,2.03,2.04,2.96l0.43,0.59c0.68,0.96,1.38,1.95,1.86,2.85l0.36,0.65l0.28,0.62c0.04,0.1,0.09,0.21,0.14,0.31
	c0.04,0.08,0.08,0.16,0.1,0.23l0.25,0.72c0.5,1.5,0.81,3.23,1.01,5.59c0.1,2-0.04,3.64-0.43,4.9c-0.25,0.84-0.6,1.59-1.08,2.64
	c-0.32,0.69-0.68,1.47-1.08,2.43l-0.49,1.25c-0.11,0.29-0.24,0.62-0.37,1.02l-0.14,0.42c-0.22,0.68-0.46,1.39-0.65,2.22l-0.34,1.36
	l-0.03,0.12c-0.1,0.49-0.18,1-0.27,1.53c-0.02,0.14-0.04,0.27-0.07,0.41c-0.06,0.36-0.13,0.77-0.18,1.22l-0.09,1.04
	c-0.16-0.38-0.34-0.77-0.53-1.19l-0.56-1.2l-0.73-1.37c-0.06-0.11-0.13-0.23-0.19-0.34c-0.16-0.29-0.34-0.62-0.56-0.98l-0.75-1.16
	l-0.03-0.05c-0.07-0.11-0.14-0.22-0.21-0.33c-0.19-0.29-0.4-0.61-0.64-0.92l-1.05-1.34c-0.22-0.28-0.44-0.55-0.66-0.82l-0.93-0.99
	c-1.01-1.12-2.04-2.02-3.04-2.89c-0.23-0.2-0.46-0.4-0.69-0.61l-0.09-0.08c-3.03-2.42-5.85-4.2-8.66-5.44l-1.13-0.49
	c-0.33-0.14-0.65-0.25-0.93-0.34c-0.11-0.04-0.22-0.07-0.37-0.13l-1.12-0.37l-1.23-0.32c-0.7-0.19-1.33-0.32-1.95-0.43l-0.4-0.08
	c-0.52-0.1-0.99-0.17-1.45-0.24c-0.22-0.03-0.44-0.07-0.67-0.1l-0.06-0.01c-2.46-0.33-4.58-0.62-6.69-1.42
	c-1.87-0.69-3.86-1.83-6.07-3.47l-8.31-6.15l4.76,9.18c1.56,3,3.15,5.32,5.02,7.31l0.76,0.79c0.23,0.24,0.46,0.44,0.66,0.61
	c0.08,0.07,0.16,0.14,0.24,0.21l0.86,0.75l0.97,0.75c1,0.77,1.98,1.43,2.92,2.08l0.61,0.42c0.96,0.67,1.96,1.36,2.72,2.04l0.55,0.48
	l0.48,0.49c0.08,0.08,0.16,0.16,0.24,0.24c0.06,0.06,0.12,0.12,0.18,0.18l0.48,0.59c0.99,1.24,1.87,2.76,2.86,4.91
	c0.78,1.85,1.21,3.44,1.27,4.75c0.05,0.88-0.02,1.7-0.11,2.85c-0.06,0.75-0.13,1.61-0.18,2.65l-0.03,1.34
	c-0.01,0.31-0.02,0.67,0,1.08l0.01,0.45c0.02,0.72,0.04,1.46,0.15,2.31L84,89.17l0.02,0.12c0.08,0.5,0.17,1,0.27,1.54
	c0.03,0.13,0.05,0.27,0.08,0.41c0.07,0.36,0.14,0.77,0.25,1.21l0.27,1.01c-0.28-0.3-0.58-0.61-0.91-0.93l-0.94-0.93l-1.15-1.04
	c-0.1-0.09-0.2-0.17-0.29-0.26c-0.25-0.22-0.53-0.47-0.87-0.73l-1.1-0.83l-0.05-0.03c-0.1-0.08-0.21-0.15-0.31-0.23
	c-0.27-0.21-0.58-0.44-0.92-0.65l-1.44-0.9c-0.3-0.19-0.6-0.37-0.91-0.54l-1.21-0.62c-1.33-0.71-2.61-1.2-3.84-1.68
	c-0.29-0.11-0.57-0.22-0.86-0.33l-0.12-0.04c-3.73-1.25-6.9-1.94-10-2.15l-1.23-0.07c-0.36-0.02-0.69-0.01-0.99,0
	c-0.12,0-0.23,0.01-0.35,0.01l-1.23,0.03l-1.27,0.12c-0.72,0.06-1.36,0.16-1.98,0.26l-0.4,0.06c-0.52,0.08-0.99,0.18-1.45,0.27
	c-0.22,0.04-0.44,0.09-0.66,0.13l-0.06,0.01c-2.43,0.53-4.53,0.98-6.77,0.95c-1.99-0.01-4.25-0.4-6.9-1.19l-9.91-2.94l7.62,6.99
	c2.49,2.29,4.78,3.92,7.22,5.15l0.98,0.48c0.3,0.15,0.58,0.26,0.83,0.35c0.1,0.04,0.19,0.08,0.34,0.13l1.02,0.4l1.17,0.38
	c1.2,0.38,2.35,0.67,3.46,0.95l0.72,0.18c1.13,0.3,2.31,0.6,3.26,0.98l0.69,0.27l0.62,0.3c0.1,0.05,0.2,0.1,0.3,0.15
	c0.08,0.04,0.16,0.07,0.23,0.11l0.65,0.39c1.35,0.83,2.7,1.95,4.37,3.63c1.37,1.47,2.31,2.82,2.82,4.03
	c0.35,0.81,0.57,1.61,0.87,2.71c0.2,0.73,0.42,1.56,0.73,2.55l0.43,1.26c0.1,0.3,0.22,0.64,0.38,1.02l0.17,0.42
	c0.27,0.67,0.54,1.36,0.93,2.12l0.61,1.25l0.06,0.11c0.25,0.44,0.5,0.88,0.78,1.35c0.07,0.12,0.14,0.24,0.21,0.35
	c0.18,0.32,0.39,0.67,0.65,1.05l0.6,0.86c-0.37-0.18-0.75-0.37-1.17-0.57l-1.2-0.56l-1.44-0.58c-0.12-0.05-0.24-0.09-0.36-0.14
	c-0.31-0.12-0.66-0.26-1.07-0.39l-1.32-0.41l-0.06-0.02c-0.12-0.04-0.25-0.07-0.37-0.11c-0.33-0.1-0.7-0.21-1.09-0.29l-1.66-0.35
	c-0.35-0.07-0.69-0.14-1.04-0.2l-1.35-0.17c-1.5-0.21-2.86-0.24-4.19-0.27c-0.31-0.01-0.61-0.01-0.92-0.02l-0.06,0l-0.06,0
	c-3.93,0.1-7.14,0.54-10.13,1.39l-1.18,0.35c-0.35,0.11-0.66,0.23-0.94,0.34c-0.11,0.04-0.21,0.08-0.32,0.12l-1.15,0.45l-1.15,0.54
	c-0.66,0.3-1.22,0.62-1.77,0.92l-0.36,0.2c-0.46,0.26-0.87,0.51-1.26,0.75c-0.19,0.12-0.38,0.24-0.58,0.35l-0.05,0.03
	c-2.1,1.32-3.91,2.47-6.04,3.21c-1.88,0.67-4.13,1.08-6.89,1.24L10,125.6l9.55,3.97c3.12,1.3,5.83,2.05,8.54,2.37l1.08,0.12
	c0.33,0.03,0.64,0.04,0.9,0.05c0.1,0,0.21,0,0.36,0.01l1.17,0.03l1.15-0.04c1.26-0.05,2.44-0.17,3.58-0.29l0.73-0.08
	c1.17-0.11,2.37-0.22,3.4-0.19l0.74,0.01l0.68,0.07c0.11,0.01,0.22,0.02,0.33,0.03c0.09,0.01,0.17,0.01,0.25,0.03l0.75,0.15
	c1.55,0.32,3.2,0.91,5.35,1.92c1.79,0.91,3.14,1.86,4.03,2.82c0.6,0.64,1.08,1.32,1.74,2.25c0.44,0.62,0.93,1.32,1.56,2.15
	l0.84,1.04c0.2,0.25,0.42,0.53,0.7,0.83l0.3,0.33c0.48,0.53,0.97,1.09,1.6,1.68l1.01,0.97l0.09,0.09c0.38,0.33,0.77,0.66,1.19,1
	c0.11,0.09,0.21,0.17,0.32,0.26c0.28,0.23,0.6,0.5,0.97,0.77l0.85,0.6c-0.41-0.05-0.83-0.09-1.3-0.13l-1.32-0.11l-1.55-0.06
	c-0.13,0-0.26-0.01-0.39-0.01c-0.33-0.01-0.71-0.02-1.13,0l-1.38,0.07l-0.06,0c-0.13,0.01-0.26,0.02-0.39,0.02
	c-0.34,0.02-0.73,0.04-1.12,0.1l-1.68,0.24c-0.35,0.05-0.7,0.1-1.05,0.17l-1.32,0.31c-1.48,0.31-2.78,0.75-4.03,1.18
	c-0.29,0.1-0.58,0.2-0.86,0.29l-0.12,0.04c-3.61,1.41-6.56,2.97-9.04,4.78l-0.99,0.73c-0.29,0.22-0.54,0.44-0.76,0.64
	c-0.09,0.08-0.17,0.15-0.26,0.23l-0.92,0.82l-0.9,0.9c-0.52,0.51-0.94,1-1.35,1.47l-0.26,0.31c-0.35,0.4-0.64,0.77-0.93,1.14
	c-0.14,0.18-0.28,0.35-0.42,0.53l-0.04,0.05c-1.52,1.96-2.83,3.66-4.58,5.08c-1.53,1.27-3.51,2.42-6.04,3.52l-9.48,4.12l10.33,0.46
	c3.38,0.15,6.18-0.07,8.84-0.69l1.06-0.26c0.32-0.08,0.61-0.18,0.86-0.26c0.1-0.03,0.2-0.07,0.3-0.1l1.08-0.37l1.14-0.46
	c1.17-0.48,2.24-1,3.27-1.5l0.66-0.32c1.06-0.5,2.16-1.02,3.13-1.34l0.7-0.24l0.66-0.17c0.11-0.03,0.22-0.05,0.33-0.08
	c0.08-0.02,0.17-0.05,0.25-0.06l0.75-0.12c1.57-0.23,3.32-0.24,5.68-0.02c1.99,0.25,3.58,0.67,4.75,1.28
	c0.79,0.4,1.47,0.87,2.41,1.52c0.62,0.43,1.33,0.92,2.2,1.48l1.15,0.7c0.27,0.16,0.57,0.35,0.94,0.54l0.39,0.21
	c0.63,0.34,1.29,0.69,2.08,1.03l1.28,0.57l0.12,0.05c0.47,0.18,0.95,0.35,1.46,0.54c0.13,0.04,0.26,0.09,0.39,0.14
	c0.34,0.12,0.74,0.26,1.18,0.39l1.01,0.27c-0.4,0.09-0.82,0.2-1.26,0.32l-1.28,0.34l-1.47,0.48c-0.12,0.04-0.24,0.08-0.37,0.12
	c-0.32,0.11-0.68,0.23-1.07,0.39l-1.27,0.53l-0.05,0.02c-0.12,0.05-0.24,0.1-0.36,0.15c-0.32,0.13-0.67,0.29-1.02,0.47l-1.5,0.8
	c-0.31,0.17-0.62,0.34-0.92,0.51l-1.14,0.74c-1.28,0.8-2.35,1.66-3.38,2.49c-0.24,0.19-0.47,0.38-0.71,0.57l-0.09,0.08
	c-2.95,2.6-5.13,5-6.86,7.58l-0.68,1.03c-0.2,0.3-0.36,0.6-0.5,0.86c-0.06,0.1-0.11,0.2-0.17,0.3l-0.59,1.08l-0.53,1.16
	c-0.31,0.65-0.54,1.26-0.76,1.84l-0.15,0.38c-0.19,0.49-0.34,0.95-0.49,1.39c-0.07,0.21-0.14,0.42-0.22,0.64l-0.02,0.06
	c-0.76,2.36-1.41,4.41-2.56,6.34c-1.01,1.72-2.47,3.48-4.47,5.38l-7.5,7.11l9.86-3.1c3.23-1.01,5.78-2.18,8.07-3.68l0.91-0.61
	c0.28-0.19,0.51-0.38,0.72-0.54c0.08-0.07,0.16-0.13,0.28-0.23l0.85-0.68l0.91-0.82c0.93-0.85,1.76-1.7,2.56-2.52l0.51-0.53
	c0.83-0.83,1.68-1.7,2.48-2.33l0.57-0.46l0.57-0.38c0.1-0.06,0.19-0.13,0.28-0.19c0.07-0.05,0.14-0.1,0.21-0.14l0.67-0.37
	c1.39-0.75,3.04-1.36,5.33-1.96c1.96-0.45,3.6-0.59,4.9-0.43c0.87,0.1,1.67,0.31,2.78,0.61c0.73,0.19,1.56,0.41,2.58,0.64l1.31,0.26
	c0.31,0.06,0.66,0.13,1.07,0.18l0.44,0.06c0.71,0.1,1.44,0.21,2.3,0.26l1.39,0.1l0.12,0.01c0.5,0.01,1.02,0.01,1.56,0
	c0.14,0,0.27,0,0.41,0c0.37,0,0.78,0,1.24-0.04l1.04-0.09c-0.34,0.23-0.7,0.46-1.08,0.73l-1.08,0.76l-1.22,0.95
	c-0.1,0.08-0.2,0.16-0.31,0.24c-0.26,0.21-0.56,0.44-0.87,0.72l-1.01,0.93l-0.04,0.04c-0.09,0.09-0.19,0.18-0.28,0.27
	c-0.25,0.23-0.54,0.5-0.8,0.8l-1.13,1.26c-0.24,0.27-0.47,0.53-0.69,0.8l-0.82,1.08c-0.93,1.19-1.64,2.36-2.32,3.49
	c-0.16,0.26-0.32,0.52-0.47,0.78l-0.06,0.11c-1.88,3.45-3.11,6.45-3.86,9.47l-0.28,1.2c-0.08,0.35-0.13,0.68-0.17,0.98
	c-0.02,0.11-0.03,0.23-0.05,0.34l-0.18,1.22l-0.11,1.27c-0.07,0.72-0.08,1.37-0.09,2l-0.01,0.4c-0.01,0.53,0,1.01,0.02,1.47
	c0.01,0.22,0.01,0.45,0.02,0.68l0,0.06c0.1,2.48,0.18,4.62-0.24,6.83c-0.36,1.96-1.13,4.11-2.37,6.59l-4.62,9.25l8.21-6.28
	c2.68-2.06,4.69-4.02,6.32-6.21l0.64-0.88c0.2-0.27,0.35-0.53,0.49-0.76c0.05-0.09,0.11-0.18,0.19-0.31l0.57-0.93l0.58-1.08
	c0.59-1.12,1.07-2.2,1.54-3.25l0.3-0.67c0.49-1.07,1-2.17,1.53-3.04l0.38-0.63l0.4-0.55c0.07-0.09,0.13-0.18,0.2-0.27
	c0.05-0.07,0.1-0.14,0.15-0.2l0.5-0.57c1.05-1.19,2.39-2.32,4.34-3.67c1.68-1.09,3.18-1.79,4.46-2.08c0.86-0.2,1.68-0.28,2.82-0.38
	c0.75-0.07,1.61-0.15,2.64-0.28l1.32-0.2c0.31-0.05,0.66-0.1,1.07-0.19l0.44-0.09c0.7-0.15,1.43-0.3,2.25-0.55l1.34-0.39l0.12-0.04
	c0.48-0.16,0.96-0.34,1.47-0.53c0.13-0.05,0.26-0.1,0.39-0.14c0.34-0.13,0.73-0.27,1.15-0.46l0.95-0.44
	c-0.25,0.33-0.5,0.68-0.76,1.06l-0.76,1.09l-0.82,1.31c-0.07,0.11-0.14,0.22-0.2,0.33c-0.17,0.28-0.37,0.6-0.57,0.98l-0.63,1.22
	l-0.03,0.05c-0.06,0.12-0.12,0.23-0.17,0.35c-0.16,0.31-0.33,0.65-0.48,1.02l-0.63,1.57c-0.13,0.33-0.26,0.66-0.38,0.99l-0.4,1.3
	c-0.47,1.44-0.73,2.78-0.99,4.08c-0.06,0.3-0.12,0.6-0.18,0.9l-0.02,0.12c-0.58,3.84-0.71,7.17-0.39,10.22l0.14,1.22
	c0.04,0.36,0.11,0.69,0.17,0.98c0.02,0.11,0.05,0.23,0.07,0.34l0.25,1.21l0.33,1.23c0.18,0.7,0.39,1.31,0.6,1.9l0.13,0.39
	c0.17,0.5,0.35,0.94,0.52,1.37c0.08,0.21,0.16,0.42,0.25,0.63l0.02,0.06c0.94,2.3,1.75,4.28,2.11,6.5c0.33,1.97,0.34,4.25,0.03,7
	l-1.17,10.27l5.56-8.71c1.82-2.85,3.03-5.38,3.82-8l0.3-1.05c0.09-0.32,0.15-0.62,0.2-0.88c0.02-0.1,0.04-0.2,0.07-0.35l0.21-1.07
	l0.17-1.21c0.17-1.25,0.25-2.44,0.34-3.58l0.05-0.73c0.1-1.17,0.2-2.38,0.4-3.38l0.14-0.72l0.19-0.66c0.03-0.11,0.06-0.22,0.09-0.32
	c0.02-0.08,0.04-0.17,0.07-0.25l0.27-0.71c0.58-1.48,1.45-3,2.82-4.93c1.21-1.6,2.38-2.76,3.48-3.47c0.74-0.48,1.48-0.84,2.52-1.32
	c0.68-0.32,1.46-0.69,2.39-1.17l1.17-0.64c0.28-0.15,0.59-0.32,0.94-0.55l0.38-0.24c0.61-0.38,1.24-0.77,1.93-1.28l1.13-0.82
	l0.1-0.08c0.39-0.32,0.78-0.65,1.2-1c0.1-0.09,0.21-0.18,0.31-0.27c0.28-0.24,0.59-0.5,0.92-0.82l0.74-0.74
	c-0.12,0.39-0.24,0.81-0.36,1.25l-0.34,1.28l-0.32,1.52c-0.02,0.13-0.05,0.26-0.08,0.38c-0.07,0.33-0.14,0.7-0.2,1.12l-0.17,1.37
	l-0.01,0.06c-0.01,0.13-0.03,0.26-0.05,0.38c-0.04,0.34-0.09,0.73-0.1,1.13l-0.06,1.7c-0.01,0.35-0.02,0.71-0.02,1.05l0.07,1.35
	c0.05,1.51,0.26,2.86,0.47,4.17c0.05,0.3,0.09,0.6,0.14,0.9l0.02,0.12c0.78,3.86,1.77,6.94,3.13,9.74l0.55,1.1
	c0.16,0.32,0.34,0.61,0.49,0.86c0.06,0.1,0.12,0.2,0.18,0.3l0.65,1.05l0.73,1.04c0.41,0.6,0.82,1.1,1.21,1.58l0.26,0.32
	c0.33,0.41,0.65,0.77,0.96,1.12c0.15,0.17,0.3,0.33,0.45,0.51l0.04,0.04c1.67,1.84,3.11,3.42,4.21,5.39
	c0.99,1.73,1.78,3.88,2.42,6.57l2.41,10.05l2.25-10.09c0.74-3.3,1.01-6.1,0.85-8.82l-0.07-1.09c-0.02-0.33-0.07-0.63-0.11-0.89
	c-0.02-0.1-0.03-0.21-0.05-0.31l-0.17-1.13l-0.26-1.2c-0.27-1.23-0.59-2.37-0.91-3.48l-0.2-0.71c-0.31-1.13-0.63-2.3-0.78-3.31
	l-0.11-0.73l-0.05-0.68c-0.01-0.11-0.02-0.22-0.02-0.33c-0.01-0.09-0.02-0.17-0.02-0.26l0.01-0.76c0.04-1.59,0.34-3.31,0.96-5.6
	c0.59-1.92,1.29-3.41,2.08-4.45c0.53-0.7,1.11-1.29,1.92-2.11c0.53-0.54,1.14-1.15,1.84-1.91l0.88-1.01
	c0.21-0.24,0.44-0.5,0.69-0.83l0.28-0.35c0.44-0.56,0.9-1.15,1.37-1.87l0.78-1.16l0.07-0.11c0.26-0.43,0.51-0.88,0.78-1.35
	c0.07-0.12,0.13-0.24,0.2-0.36c0.18-0.32,0.39-0.68,0.59-1.09l0.44-0.94c0.02,0.41,0.05,0.84,0.1,1.3l0.12,1.32l0.21,1.54
	c0.02,0.13,0.04,0.26,0.06,0.39c0.05,0.33,0.1,0.7,0.19,1.11l0.3,1.34l0.01,0.06c0.03,0.13,0.06,0.25,0.09,0.38
	c0.08,0.33,0.16,0.71,0.29,1.09l0.53,1.62c0.11,0.34,0.22,0.67,0.34,0.99l0.53,1.25c0.56,1.4,1.22,2.6,1.86,3.76
	c0.15,0.27,0.29,0.53,0.44,0.8l0.06,0.11c2.02,3.31,4.07,5.95,6.27,8.08l0.9,0.84c0.26,0.25,0.53,0.46,0.76,0.64
	c0.09,0.07,0.18,0.14,0.31,0.25l0.93,0.74l1.05,0.73c0.59,0.42,1.15,0.75,1.68,1.07l0.35,0.21c0.45,0.27,0.87,0.5,1.28,0.72
	c0.2,0.11,0.39,0.21,0.59,0.32l0.05,0.03c2.2,1.16,4.09,2.15,5.8,3.63c1.52,1.29,3,3.04,4.52,5.34l5.7,8.62l-1.34-10.25
	c-0.44-3.35-1.14-6.07-2.22-8.58l-0.44-1c-0.14-0.3-0.28-0.57-0.41-0.8c-0.05-0.09-0.1-0.18-0.15-0.28l-0.55-1l-0.65-1.04
	c-0.67-1.07-1.37-2.03-2.04-2.96l-0.43-0.59c-0.68-0.96-1.38-1.95-1.86-2.85l-0.36-0.64l-0.28-0.62c-0.04-0.1-0.09-0.21-0.14-0.31
	c-0.04-0.08-0.08-0.16-0.1-0.23l-0.25-0.72c-0.5-1.5-0.81-3.23-1.01-5.59c-0.1-2,0.04-3.64,0.43-4.9c0.25-0.84,0.6-1.59,1.08-2.64
	c0.32-0.69,0.68-1.47,1.08-2.43l0.49-1.25c0.11-0.29,0.24-0.62,0.37-1.02l0.14-0.42c0.22-0.68,0.46-1.39,0.65-2.22l0.34-1.36
	l0.03-0.12c0.1-0.49,0.18-1,0.27-1.53c0.02-0.14,0.04-0.27,0.07-0.41c0.06-0.36,0.13-0.77,0.18-1.22l0.09-1.04
	c0.16,0.38,0.34,0.77,0.53,1.19l0.56,1.2l0.73,1.37c0.06,0.11,0.13,0.23,0.19,0.34c0.16,0.29,0.34,0.62,0.56,0.98l0.75,1.16
	l0.03,0.05c0.07,0.11,0.14,0.22,0.21,0.33c0.19,0.29,0.4,0.61,0.64,0.92l1.05,1.34c0.22,0.28,0.44,0.55,0.66,0.82l0.93,0.99
	c1.01,1.12,2.04,2.02,3.04,2.89c0.23,0.2,0.46,0.4,0.69,0.61l0.09,0.08c3.03,2.42,5.85,4.2,8.66,5.44l1.13,0.49
	c0.33,0.14,0.65,0.25,0.93,0.34c0.11,0.04,0.22,0.07,0.37,0.13l1.12,0.37l1.23,0.32c0.7,0.19,1.33,0.32,1.95,0.43l0.4,0.08
	c0.52,0.1,0.99,0.17,1.45,0.24c0.22,0.03,0.44,0.07,0.67,0.1l0.06,0.01c2.46,0.33,4.58,0.62,6.69,1.42
	c1.87,0.69,3.86,1.83,6.07,3.47l8.31,6.15l-4.76-9.18c-1.56-3-3.15-5.32-5.02-7.31l-0.76-0.79c-0.23-0.24-0.46-0.44-0.66-0.61
	c-0.08-0.07-0.16-0.14-0.24-0.21l-0.86-0.75l-0.97-0.75c-1-0.77-1.98-1.43-2.92-2.08l-0.61-0.42c-0.96-0.67-1.96-1.36-2.72-2.04
	l-0.55-0.48l-0.48-0.49c-0.08-0.08-0.16-0.16-0.24-0.24c-0.06-0.06-0.12-0.12-0.18-0.18l-0.48-0.59c-0.99-1.24-1.87-2.76-2.86-4.91
	c-0.78-1.85-1.21-3.44-1.27-4.75c-0.05-0.88,0.02-1.7,0.11-2.85c0.06-0.75,0.13-1.61,0.18-2.65l0.03-1.34
	c0.01-0.31,0.02-0.67,0-1.08l-0.01-0.45c-0.02-0.72-0.04-1.46-0.15-2.31l-0.15-1.39l-0.02-0.12c-0.08-0.5-0.17-1-0.27-1.54
	c-0.03-0.13-0.05-0.27-0.08-0.41c-0.07-0.36-0.14-0.77-0.25-1.21l-0.27-1.01c0.28,0.3,0.58,0.61,0.91,0.93l0.94,0.93l1.15,1.04
	c0.1,0.09,0.2,0.17,0.29,0.26c0.25,0.22,0.53,0.47,0.87,0.73l1.1,0.83l0.05,0.03c0.1,0.08,0.21,0.15,0.31,0.23
	c0.27,0.21,0.58,0.44,0.92,0.65l1.44,0.9c0.3,0.19,0.6,0.37,0.91,0.54l1.21,0.62c1.33,0.71,2.61,1.2,3.84,1.68
	c0.29,0.11,0.57,0.22,0.86,0.33l0.12,0.04c3.73,1.25,6.9,1.94,10,2.15l1.23,0.07c0.36,0.02,0.69,0.01,0.99,0
	c0.12,0,0.23-0.01,0.35-0.01l1.23-0.03l1.27-0.12c0.72-0.06,1.36-0.16,1.98-0.26l0.4-0.06c0.52-0.08,0.99-0.18,1.45-0.27
	c0.22-0.04,0.44-0.09,0.66-0.13l0.06-0.01c2.43-0.53,4.52-0.98,6.77-0.95c1.99,0.01,4.25,0.4,6.9,1.19l9.91,2.94l-7.62-6.99
	c-2.49-2.29-4.78-3.92-7.22-5.15l-0.98-0.48c-0.3-0.15-0.58-0.26-0.83-0.35c-0.1-0.04-0.19-0.08-0.34-0.13l-1.02-0.4l-1.17-0.38
	c-1.2-0.38-2.35-0.67-3.46-0.95l-0.72-0.18c-1.13-0.3-2.31-0.6-3.26-0.98l-0.69-0.27l-0.62-0.3c-0.1-0.05-0.2-0.1-0.3-0.15
	c-0.08-0.04-0.16-0.07-0.23-0.11l-0.65-0.39c-1.35-0.83-2.7-1.95-4.37-3.63c-1.37-1.47-2.31-2.82-2.82-4.03
	c-0.35-0.81-0.57-1.61-0.87-2.71c-0.2-0.73-0.42-1.56-0.73-2.55l-0.43-1.26c-0.1-0.3-0.22-0.64-0.38-1.02l-0.17-0.42
	c-0.27-0.67-0.54-1.36-0.93-2.12l-0.61-1.25l-0.06-0.11c-0.25-0.44-0.5-0.88-0.78-1.35c-0.07-0.12-0.14-0.24-0.21-0.35
	c-0.19-0.32-0.39-0.67-0.65-1.05l-0.6-0.86c0.37,0.18,0.75,0.37,1.17,0.57L232.91,181.98z M232.11,127.04
	c0.15,0.05,0.3,0.11,0.41,0.15c0.43,0.15,0.86,0.31,1.28,0.47l1.25,0.55c0.62,0.27,1.16,0.55,1.72,0.86l0.44,0.24
	c0.24,0.13,0.44,0.25,0.67,0.39l1.07,0.65c0.8,0.51,1.46,0.97,2.04,1.38c1.02,0.71,1.9,1.32,2.96,1.85c1.66,0.85,3.8,1.45,6.37,1.76
	l0.07,0.01c2.77,0.26,4.89,0.24,6.88-0.05l0.78-0.12c0.28-0.05,0.53-0.11,0.72-0.16c0.07-0.02,0.13-0.04,0.2-0.05l0.83-0.21
	l0.96-0.32c1.23-0.41,2.51-1.01,3.66-1.56l0.69-0.33c0.96-0.47,1.96-0.95,2.99-1.37l0.93-0.38l0.56-0.19
	c-1.31,1.33-2.41,2.75-3.56,4.23c-0.15,0.18-0.3,0.37-0.44,0.55c-0.25,0.32-0.51,0.64-0.79,0.97l-0.28,0.32
	c-0.36,0.42-0.7,0.81-1.11,1.21l-0.75,0.76l-0.81,0.72c-0.1,0.09-0.2,0.18-0.3,0.27c-0.16,0.14-0.31,0.28-0.47,0.4l-0.95,0.71
	c-2.14,1.56-4.65,2.88-7.9,4.15c-0.28,0.09-0.56,0.19-0.84,0.29c-1.17,0.4-2.28,0.78-3.48,1.03l-1.24,0.29
	c-0.27,0.05-0.54,0.09-0.82,0.13l-1.67,0.23c-0.19,0.03-0.43,0.04-0.69,0.05c-0.15,0.01-0.31,0.02-0.46,0.03l-1.33,0.06
	c-0.27,0.01-0.53,0-0.79-0.01c-0.15,0-0.3-0.01-0.41-0.01l-1.32-0.05l-1.26-0.11c-0.74-0.06-1.38-0.14-2.07-0.23l-2.54-0.32
	l-1.16-0.1c-0.29-0.03-0.61-0.05-0.94-0.04l-0.27,0c-0.44,0-0.93-0.01-1.42,0.08l-0.19,0.02c-0.16-3.23-0.51-6.46-1.05-9.63
	c-0.64-3.74-1.55-7.45-2.72-11.06l0.14,0.01c0.36,0.05,0.74,0.12,1.1,0.18l1.73,0.32c0.24,0.04,0.53,0.12,0.84,0.2
	c0.15,0.04,0.3,0.08,0.46,0.12l1.41,0.38C231.52,126.83,231.81,126.93,232.11,127.04z M218.41,100.36c0.27-0.02,0.57-0.02,0.89-0.02
	c0.16,0,0.31,0,0.44,0c0.46,0,0.92,0,1.37,0l1.36,0.09c0.68,0.04,1.28,0.12,1.91,0.22l0.49,0.07c0.27,0.03,0.5,0.08,0.77,0.13
	l1.22,0.24c0.92,0.21,1.7,0.41,2.39,0.59c1.2,0.32,2.23,0.59,3.42,0.73c1.85,0.24,4.07,0.06,6.59-0.52l0.07-0.02
	c2.69-0.71,4.68-1.45,6.44-2.4l0.69-0.38c0.25-0.14,0.46-0.28,0.62-0.4c0.06-0.04,0.11-0.08,0.17-0.12l0.71-0.48l0.79-0.63
	c1.01-0.8,1.97-1.77,2.91-2.72l0.54-0.55c0.74-0.77,1.51-1.56,2.33-2.31l0.75-0.68l0.46-0.37c-0.78,1.69-1.33,3.41-1.9,5.2
	c-0.08,0.22-0.15,0.45-0.23,0.67c-0.13,0.39-0.26,0.78-0.41,1.18l-0.15,0.4c-0.2,0.52-0.38,1-0.63,1.52l-0.45,0.97l-0.52,0.95
	c-0.07,0.12-0.13,0.24-0.2,0.35c-0.1,0.19-0.2,0.37-0.3,0.53l-0.65,0.99c-1.48,2.2-3.39,4.3-6,6.6c-0.23,0.18-0.46,0.37-0.69,0.56
	c-0.97,0.78-1.88,1.52-2.92,2.16l-1.06,0.69c-0.23,0.14-0.48,0.27-0.72,0.4l-1.49,0.79c-0.17,0.09-0.39,0.18-0.63,0.29
	c-0.14,0.06-0.28,0.12-0.42,0.18l-1.23,0.51c-0.22,0.09-0.48,0.18-0.75,0.27c-0.14,0.05-0.28,0.09-0.38,0.13l-1.26,0.41l-1.22,0.33
	c-0.71,0.19-1.34,0.34-2.01,0.49l-2.51,0.57l-1.12,0.3c-0.28,0.07-0.59,0.16-0.89,0.28l-0.26,0.09c-0.41,0.15-0.88,0.31-1.31,0.56
	l-0.17,0.09c-1.25-2.98-2.69-5.89-4.28-8.69c-1.88-3.29-4-6.47-6.34-9.47l0.13-0.03c0.36-0.08,0.74-0.14,1.11-0.21l1.72-0.29
	c0.24-0.04,0.55-0.07,0.86-0.1c0.16-0.01,0.31-0.03,0.47-0.04L218.41,100.36z M194.77,81.16c0.22-0.12,0.49-0.25,0.78-0.39
	c0.14-0.07,0.28-0.13,0.42-0.2l1.33-0.61c0.25-0.11,0.53-0.22,0.83-0.33c0.15-0.05,0.29-0.11,0.41-0.15
	c0.43-0.16,0.86-0.32,1.28-0.46l1.31-0.38c0.65-0.2,1.24-0.32,1.87-0.45l0.49-0.1c0.27-0.06,0.49-0.1,0.76-0.14l1.23-0.19
	c0.94-0.12,1.74-0.19,2.45-0.26c1.23-0.11,2.3-0.21,3.46-0.49c1.82-0.41,3.84-1.33,6.01-2.74l0.06-0.04
	c2.29-1.59,3.9-2.96,5.23-4.46l0.52-0.59c0.19-0.22,0.33-0.42,0.45-0.59c0.04-0.06,0.08-0.11,0.12-0.17l0.5-0.69l0.53-0.86
	c0.68-1.1,1.25-2.33,1.8-3.55l0.31-0.7c0.44-0.98,0.89-1.99,1.4-2.97l0.47-0.89l0.31-0.5c-0.15,1.86-0.08,3.66-0.01,5.53
	c0,0.24,0.01,0.47,0.02,0.71c0.01,0.41,0.02,0.82,0.02,1.25l-0.01,0.42c-0.01,0.55-0.01,1.08-0.07,1.64L229,68.88l-0.16,1.07
	c-0.02,0.13-0.04,0.27-0.06,0.4c-0.03,0.21-0.06,0.42-0.1,0.61l-0.27,1.15c-0.64,2.57-1.71,5.19-3.38,8.26
	c-0.16,0.25-0.31,0.51-0.46,0.76c-0.64,1.06-1.25,2.06-2,3.03l-0.76,1.01c-0.18,0.21-0.36,0.42-0.55,0.63l-1.12,1.25
	c-0.13,0.14-0.3,0.31-0.49,0.48c-0.11,0.1-0.22,0.21-0.33,0.31l-0.98,0.9c-0.18,0.16-0.39,0.33-0.61,0.5
	c-0.12,0.09-0.24,0.19-0.32,0.25l-1.04,0.81l-1.04,0.73c-0.6,0.43-1.15,0.78-1.72,1.15l-2.16,1.39l-0.95,0.67
	c-0.24,0.17-0.5,0.35-0.74,0.57l-0.21,0.18c-0.34,0.28-0.72,0.59-1.04,0.97l-0.13,0.14c-2.2-2.37-4.54-4.62-6.99-6.7
	c-2.89-2.45-5.97-4.71-9.19-6.73l0.11-0.08c0.31-0.19,0.64-0.38,0.96-0.57L194.77,81.16z M166.68,72.2
	c0.23-0.29,0.47-0.58,0.71-0.86l1.14-1.34c0.16-0.19,0.37-0.41,0.6-0.63c0.11-0.11,0.22-0.22,0.33-0.33L170.5,68
	c0.2-0.19,0.42-0.38,0.67-0.59c0.12-0.1,0.24-0.2,0.33-0.29c0.35-0.3,0.7-0.59,1.05-0.88l1.1-0.8c0.54-0.41,1.06-0.73,1.6-1.06
	l0.43-0.26c0.23-0.15,0.44-0.26,0.68-0.39l1.09-0.6c0.84-0.43,1.57-0.78,2.21-1.08c1.12-0.53,2.09-0.98,3.09-1.64
	c1.57-1.01,3.15-2.57,4.71-4.63l0.04-0.06c1.61-2.27,2.65-4.11,3.39-5.98l0.28-0.73c0.1-0.27,0.17-0.51,0.22-0.71
	c0.02-0.07,0.04-0.13,0.06-0.2l0.24-0.82l0.2-0.99c0.26-1.26,0.37-2.62,0.48-3.95l0.06-0.76c0.08-1.07,0.15-2.18,0.3-3.28l0.14-1
	l0.12-0.58c0.49,1.8,1.18,3.47,1.89,5.2c0.08,0.22,0.17,0.44,0.26,0.66c0.15,0.38,0.3,0.76,0.44,1.17l0.14,0.41
	c0.18,0.52,0.35,1.01,0.5,1.56l0.29,1.03l0.22,1.06c0.02,0.13,0.05,0.27,0.08,0.4c0.04,0.21,0.09,0.41,0.11,0.6l0.14,1.18
	c0.28,2.63,0.17,5.47-0.35,8.92c-0.06,0.29-0.12,0.58-0.17,0.87c-0.24,1.22-0.46,2.37-0.85,3.53l-0.37,1.21
	c-0.09,0.26-0.2,0.52-0.3,0.77l-0.63,1.56c-0.07,0.18-0.18,0.39-0.3,0.62c-0.07,0.14-0.14,0.27-0.21,0.41l-0.61,1.18
	c-0.12,0.23-0.26,0.46-0.4,0.68c-0.08,0.13-0.16,0.26-0.21,0.35l-0.7,1.12l-0.73,1.04c-0.42,0.6-0.81,1.12-1.22,1.66l-1.55,2.05
	l-0.66,0.95c-0.17,0.24-0.35,0.5-0.51,0.79l-0.14,0.24c-0.22,0.38-0.47,0.81-0.64,1.27l-0.08,0.18c-2.88-1.48-5.85-2.79-8.86-3.9
	l0,0c-3.56-1.32-7.22-2.38-10.94-3.18L166.68,72.2z M139.07,71.19c0.12-0.35,0.24-0.7,0.37-1.05l0.61-1.65
	c0.09-0.23,0.21-0.51,0.35-0.8c0.07-0.14,0.13-0.28,0.19-0.42l0.62-1.33c0.12-0.25,0.27-0.51,0.43-0.79
	c0.08-0.14,0.15-0.27,0.22-0.38c0.23-0.4,0.45-0.79,0.68-1.18l0.76-1.13c0.37-0.57,0.75-1.04,1.14-1.55l0.31-0.39
	c0.17-0.22,0.32-0.39,0.5-0.59l0.82-0.94c0.64-0.7,1.21-1.27,1.71-1.77c0.87-0.88,1.63-1.64,2.34-2.6c1.13-1.48,2.09-3.49,2.84-5.97
	l0.02-0.07c0.73-2.69,1.09-4.77,1.14-6.78l0.02-0.78c0.01-0.29-0.02-0.54-0.03-0.74c-0.01-0.07-0.01-0.14-0.02-0.21l-0.06-0.85
	l-0.15-1c-0.19-1.27-0.55-2.59-0.9-3.88l-0.21-0.74c-0.29-1.03-0.6-2.09-0.83-3.18l-0.21-0.98l-0.09-0.58
	c1.08,1.52,2.29,2.85,3.55,4.24c0.16,0.18,0.31,0.36,0.47,0.53c0.27,0.31,0.54,0.61,0.82,0.95l0.27,0.33c0.35,0.43,0.68,0.83,1,1.3
	l0.62,0.87l0.57,0.92c0.07,0.12,0.14,0.23,0.21,0.35c0.11,0.18,0.22,0.36,0.31,0.53l0.53,1.06c1.16,2.38,2.03,5.08,2.72,8.5
	c0.04,0.29,0.09,0.59,0.14,0.88c0.19,1.23,0.37,2.38,0.41,3.61l0.07,1.27c0,0.27-0.01,0.55-0.02,0.83l-0.06,1.69
	c0,0.19-0.04,0.43-0.07,0.69c-0.02,0.15-0.04,0.3-0.05,0.45l-0.17,1.32c-0.03,0.24-0.09,0.5-0.14,0.78
	c-0.03,0.15-0.06,0.29-0.08,0.4l-0.27,1.29l-0.33,1.22c-0.19,0.72-0.38,1.34-0.59,1.99l-0.76,2.44l-0.3,1.12
	c-0.08,0.28-0.16,0.6-0.21,0.92l-0.05,0.27c-0.08,0.43-0.17,0.92-0.17,1.41l-0.01,0.19c-6.99-0.89-14.07-0.84-21.03,0.12
	L139.07,71.19z M112.77,76.81c0-0.25,0.03-0.55,0.05-0.87c0.01-0.16,0.03-0.31,0.04-0.46l0.13-1.46c0.03-0.27,0.08-0.57,0.13-0.88
	c0.03-0.16,0.05-0.31,0.07-0.43c0.08-0.45,0.15-0.9,0.24-1.35l0.33-1.32c0.15-0.66,0.34-1.24,0.54-1.85l0.16-0.47
	c0.08-0.26,0.17-0.48,0.26-0.73l0.45-1.16c0.37-0.87,0.7-1.6,1-2.25c0.52-1.13,0.97-2.1,1.31-3.24c0.55-1.78,0.77-3.99,0.63-6.58
	l-0.01-0.07c-0.23-2.78-0.61-4.86-1.25-6.76l-0.25-0.74c-0.09-0.27-0.2-0.5-0.28-0.68c-0.03-0.06-0.06-0.13-0.09-0.19l-0.35-0.78
	l-0.48-0.89c-0.61-1.13-1.4-2.25-2.17-3.33l-0.45-0.62c-0.63-0.87-1.28-1.77-1.87-2.7l-0.54-0.85l-0.28-0.52
	c1.53,1.06,3.13,1.9,4.79,2.77c0.21,0.12,0.41,0.23,0.62,0.34c0.36,0.19,0.72,0.39,1.09,0.61l0.37,0.22
	c0.47,0.28,0.92,0.55,1.38,0.88l0.88,0.61l0.83,0.66c0.11,0.09,0.22,0.18,0.33,0.27c0.17,0.13,0.33,0.26,0.47,0.39l0.86,0.81
	c1.91,1.84,3.64,4.08,5.46,7.06c0.14,0.26,0.28,0.52,0.43,0.78c0.6,1.09,1.17,2.11,1.62,3.25l0.5,1.17
	c0.09,0.26,0.18,0.52,0.27,0.78l0.52,1.6c0.06,0.18,0.11,0.42,0.17,0.67c0.03,0.15,0.07,0.3,0.11,0.45l0.29,1.29
	c0.06,0.26,0.09,0.52,0.13,0.78c0.02,0.15,0.04,0.3,0.06,0.4l0.18,1.31l0.11,1.26c0.07,0.74,0.1,1.39,0.13,2.07l0.13,2.56l0.1,1.16
	c0.02,0.29,0.05,0.61,0.12,0.93l0.05,0.27c0.07,0.43,0.16,0.92,0.32,1.38l0.05,0.18c-3.15,0.72-6.27,1.62-9.3,2.71
	c-3.57,1.28-7.06,2.82-10.42,4.6l-0.01-0.14c-0.01-0.37-0.01-0.75-0.01-1.13l0-0.24L112.77,76.81z M83.61,64.46l-0.49-0.61
	c-0.18-0.22-0.36-0.4-0.5-0.55c-0.05-0.05-0.1-0.1-0.15-0.15l-0.6-0.62l-0.76-0.67c-0.96-0.86-2.08-1.63-3.18-2.39l-0.64-0.44
	c-0.89-0.6-1.8-1.22-2.68-1.9l-0.79-0.62l-0.44-0.39c1.8,0.47,3.59,0.71,5.45,0.97c0.24,0.04,0.47,0.07,0.7,0.11
	c0.4,0.06,0.81,0.12,1.23,0.2l0.42,0.08c0.54,0.1,1.05,0.2,1.6,0.35l1.04,0.27l1,0.33c0.13,0.05,0.27,0.09,0.4,0.14
	c0.2,0.07,0.4,0.13,0.58,0.21l1.09,0.47c2.42,1.08,4.82,2.59,7.54,4.76c0.22,0.2,0.45,0.39,0.67,0.59c0.93,0.81,1.82,1.58,2.63,2.5
	l0.87,0.93c0.18,0.21,0.35,0.43,0.52,0.64l1.04,1.33c0.12,0.15,0.25,0.35,0.39,0.57c0.08,0.13,0.17,0.26,0.25,0.38l0.72,1.12
	c0.14,0.22,0.26,0.46,0.39,0.69c0.07,0.13,0.14,0.27,0.2,0.36l0.62,1.17l0.54,1.15c0.32,0.67,0.57,1.27,0.83,1.9l0.99,2.36
	l0.49,1.05c0.12,0.26,0.26,0.56,0.43,0.84l0.14,0.24c0.22,0.38,0.46,0.81,0.78,1.19l0.11,0.15c-2.72,1.75-5.34,3.67-7.81,5.72v0
	c-2.92,2.42-5.67,5.07-8.22,7.89l-0.06-0.12c-0.14-0.34-0.27-0.7-0.4-1.05l-0.59-1.65c-0.08-0.23-0.16-0.52-0.25-0.83
	c-0.04-0.15-0.08-0.3-0.12-0.45l-0.37-1.42c-0.07-0.27-0.12-0.56-0.18-0.88c-0.03-0.15-0.06-0.31-0.08-0.43
	c-0.08-0.45-0.16-0.9-0.24-1.34l-0.14-1.36c-0.08-0.67-0.1-1.28-0.12-1.92l-0.02-0.5c-0.01-0.27-0.01-0.5,0-0.77l0.03-1.25
	c0.05-0.95,0.11-1.75,0.17-2.45c0.1-1.23,0.19-2.3,0.12-3.49c-0.09-1.86-0.65-4.01-1.66-6.4l-0.03-0.07
	C85.93,67.86,84.86,66.03,83.61,64.46z M69.21,107.89c-0.28-0.91-0.49-1.68-0.68-2.36c-0.33-1.2-0.61-2.23-1.08-3.32
	c-0.72-1.72-1.98-3.55-3.74-5.45l-0.05-0.05c-1.96-1.98-3.59-3.33-5.3-4.38l-0.67-0.41c-0.25-0.15-0.48-0.26-0.66-0.34
	c-0.06-0.03-0.13-0.06-0.19-0.09l-0.77-0.37l-0.94-0.37c-1.2-0.48-2.57-0.84-3.81-1.16l-0.75-0.19c-1.04-0.26-2.11-0.53-3.17-0.87
	l-0.96-0.31L45.9,88c1.86-0.17,3.62-0.56,5.45-0.95c0.23-0.04,0.46-0.09,0.69-0.14c0.4-0.08,0.8-0.17,1.23-0.23l0.42-0.07
	c0.55-0.09,1.06-0.17,1.63-0.22l1.07-0.1l1.08-0.03c0.13,0,0.27,0,0.41-0.01c0.21-0.01,0.42-0.01,0.61,0l1.18,0.07
	c2.64,0.18,5.41,0.79,8.72,1.9c0.28,0.11,0.55,0.22,0.83,0.32c1.16,0.45,2.25,0.87,3.33,1.45l1.13,0.57
	c0.24,0.14,0.47,0.28,0.71,0.43l1.42,0.89c0.16,0.1,0.36,0.25,0.56,0.4c0.12,0.09,0.24,0.18,0.37,0.27l1.06,0.8
	c0.21,0.16,0.41,0.34,0.6,0.51c0.11,0.1,0.22,0.2,0.3,0.27l0.98,0.88l0.9,0.89c0.53,0.52,0.97,1,1.43,1.5l1.74,1.88l0.82,0.82
	c0.21,0.21,0.44,0.44,0.69,0.64l0.21,0.18c0.33,0.28,0.71,0.61,1.14,0.86l0.16,0.11c-1.96,2.58-3.76,5.27-5.38,8.05
	c-1.91,3.28-3.6,6.7-5.03,10.22l-0.09-0.1c-0.25-0.28-0.49-0.57-0.74-0.86l-1.11-1.34c-0.16-0.19-0.33-0.44-0.52-0.7
	c-0.09-0.13-0.18-0.25-0.27-0.38l-0.84-1.2c-0.15-0.23-0.31-0.49-0.47-0.76c-0.08-0.14-0.16-0.27-0.22-0.38
	c-0.23-0.39-0.46-0.79-0.68-1.18l-0.6-1.23c-0.31-0.61-0.53-1.17-0.77-1.76l-0.19-0.47c-0.11-0.25-0.18-0.48-0.27-0.73L69.21,107.89
	z M63.61,142.34l-0.98-0.95c-0.5-0.46-0.9-0.92-1.33-1.39l-0.33-0.37c-0.19-0.2-0.33-0.39-0.5-0.6l-0.78-0.97
	c-0.57-0.75-1.04-1.41-1.45-1.99c-0.72-1.01-1.33-1.89-2.15-2.76c-1.27-1.37-3.08-2.66-5.38-3.84l-0.07-0.03
	c-2.52-1.19-4.51-1.9-6.48-2.3l-0.77-0.15c-0.28-0.06-0.53-0.08-0.74-0.1c-0.07-0.01-0.14-0.01-0.21-0.02l-0.85-0.09l-1.01-0.03
	c-1.29-0.04-2.64,0.09-3.97,0.21l-0.77,0.08c-1.06,0.11-2.17,0.22-3.27,0.27l-1.01,0.04l-0.59-0.01c1.68-0.8,3.21-1.76,4.8-2.76
	c0.21-0.12,0.41-0.25,0.61-0.37c0.35-0.21,0.7-0.43,1.07-0.64l0.38-0.21c0.48-0.27,0.94-0.52,1.45-0.76l0.97-0.46l1.01-0.4
	c0.13-0.05,0.25-0.1,0.38-0.15c0.2-0.08,0.39-0.16,0.58-0.21l1.13-0.34c2.55-0.73,5.36-1.11,8.84-1.2c0.3,0.01,0.59,0.01,0.89,0.02
	c1.24,0.02,2.41,0.05,3.62,0.22l1.26,0.15c0.27,0.05,0.54,0.1,0.81,0.16l1.65,0.35c0.18,0.04,0.42,0.11,0.67,0.19
	c0.15,0.04,0.29,0.09,0.44,0.13l1.27,0.39c0.25,0.08,0.5,0.18,0.74,0.28c0.14,0.06,0.28,0.11,0.38,0.15l1.22,0.49l1.15,0.53
	c0.67,0.31,1.24,0.61,1.85,0.92l2.28,1.17l1.06,0.49c0.26,0.12,0.55,0.26,0.86,0.36l0.26,0.09c0.41,0.15,0.88,0.33,1.36,0.42
	l0.19,0.04c-0.96,3.09-1.73,6.24-2.3,9.41h0c-0.68,3.73-1.09,7.53-1.23,11.32l-0.12-0.06c-0.33-0.18-0.65-0.37-0.98-0.55L68,145.64
	c-0.21-0.12-0.46-0.3-0.72-0.48c-0.13-0.09-0.26-0.18-0.39-0.27l-1.2-0.84c-0.22-0.16-0.45-0.35-0.7-0.56
	c-0.12-0.1-0.24-0.2-0.34-0.28C64.3,142.93,63.95,142.63,63.61,142.34z M67.89,172.96c-0.15-0.05-0.3-0.11-0.41-0.15
	c-0.43-0.15-0.86-0.31-1.28-0.47l-1.25-0.55c-0.62-0.27-1.16-0.55-1.72-0.86l-0.44-0.24c-0.24-0.13-0.44-0.25-0.67-0.39l-1.07-0.65
	c-0.8-0.51-1.46-0.97-2.04-1.38c-1.02-0.71-1.9-1.32-2.96-1.85c-1.66-0.85-3.8-1.45-6.37-1.76l-0.07-0.01
	c-2.77-0.26-4.89-0.24-6.88,0.05l-0.78,0.12c-0.28,0.05-0.53,0.11-0.72,0.16c-0.07,0.02-0.13,0.04-0.2,0.05l-0.83,0.21l-0.96,0.32
	c-1.23,0.41-2.51,1.01-3.66,1.56l-0.69,0.33c-0.96,0.47-1.96,0.95-2.99,1.37l-0.93,0.38l-0.56,0.19c1.31-1.33,2.41-2.75,3.56-4.23
	c0.15-0.18,0.3-0.37,0.44-0.55c0.25-0.32,0.51-0.64,0.79-0.97l0.28-0.32c0.36-0.42,0.7-0.81,1.11-1.21l0.75-0.76l0.81-0.72
	c0.1-0.09,0.2-0.18,0.3-0.27c0.16-0.14,0.31-0.28,0.47-0.4l0.95-0.71c2.14-1.56,4.65-2.88,7.9-4.15c0.28-0.09,0.56-0.19,0.84-0.29
	c1.17-0.4,2.28-0.78,3.48-1.03l1.24-0.29c0.27-0.05,0.54-0.09,0.82-0.13l1.67-0.23c0.19-0.03,0.43-0.04,0.69-0.05
	c0.15-0.01,0.31-0.02,0.46-0.03l1.33-0.06c0.26-0.01,0.53,0,0.79,0.01c0.15,0,0.3,0.01,0.41,0.01l1.32,0.05l1.26,0.11
	c0.74,0.06,1.38,0.14,2.07,0.23l2.54,0.32l1.16,0.1c0.29,0.03,0.61,0.05,0.94,0.04l0.27,0c0.44,0,0.93,0.01,1.42-0.08l0.19-0.02
	c0.16,3.23,0.51,6.46,1.05,9.63c0.64,3.74,1.55,7.45,2.72,11.06l-0.14-0.01c-0.36-0.05-0.74-0.12-1.1-0.18l-1.73-0.32
	c-0.24-0.04-0.53-0.12-0.84-0.2c-0.15-0.04-0.3-0.08-0.46-0.12l-1.41-0.38C68.48,173.17,68.19,173.07,67.89,172.96z M81.59,199.64
	c-0.27,0.02-0.57,0.02-0.89,0.02c-0.16,0-0.31,0-0.44,0c-0.46,0-0.92,0-1.37,0l-1.36-0.09c-0.68-0.04-1.28-0.12-1.91-0.22
	l-0.49-0.07c-0.27-0.03-0.5-0.08-0.77-0.13l-1.22-0.24c-0.92-0.21-1.7-0.41-2.39-0.59c-1.2-0.32-2.23-0.59-3.42-0.73
	c-1.85-0.24-4.07-0.06-6.59,0.52l-0.07,0.02c-2.69,0.71-4.68,1.45-6.44,2.4l-0.69,0.38c-0.25,0.14-0.46,0.28-0.62,0.4
	c-0.06,0.04-0.11,0.08-0.17,0.12l-0.71,0.48l-0.79,0.63c-1.01,0.8-1.97,1.77-2.91,2.72l-0.54,0.55c-0.74,0.77-1.51,1.56-2.33,2.31
	l-0.75,0.68l-0.46,0.37c0.78-1.69,1.33-3.41,1.9-5.2c0.08-0.22,0.15-0.45,0.23-0.67c0.13-0.39,0.26-0.78,0.41-1.18l0.15-0.4
	c0.2-0.52,0.38-1,0.63-1.52l0.45-0.97l0.52-0.95c0.07-0.12,0.13-0.24,0.2-0.35c0.1-0.19,0.2-0.37,0.3-0.53l0.65-0.99
	c1.48-2.2,3.39-4.3,6-6.6c0.23-0.18,0.46-0.37,0.69-0.56c0.97-0.78,1.88-1.52,2.92-2.16l1.06-0.69c0.23-0.14,0.48-0.27,0.72-0.4
	l1.49-0.79c0.17-0.09,0.39-0.18,0.63-0.29c0.14-0.06,0.28-0.12,0.42-0.18l1.23-0.51c0.22-0.09,0.48-0.18,0.75-0.27
	c0.14-0.05,0.28-0.09,0.38-0.13l1.26-0.41l1.22-0.33c0.71-0.19,1.34-0.34,2.01-0.49l2.51-0.57l1.12-0.3
	c0.28-0.07,0.59-0.16,0.89-0.28l0.26-0.09c0.41-0.15,0.88-0.31,1.31-0.56l0.17-0.09c1.25,2.98,2.69,5.89,4.28,8.69
	c1.88,3.29,4,6.47,6.34,9.47l-0.13,0.03c-0.36,0.08-0.74,0.14-1.11,0.21l-1.72,0.29c-0.24,0.04-0.55,0.07-0.86,0.1
	c-0.16,0.01-0.31,0.03-0.47,0.04L81.59,199.64z M105.23,218.84c-0.22,0.12-0.49,0.25-0.78,0.39c-0.14,0.07-0.28,0.13-0.42,0.2
	l-1.33,0.61c-0.25,0.11-0.53,0.22-0.83,0.33c-0.15,0.05-0.29,0.11-0.41,0.15c-0.43,0.16-0.86,0.32-1.28,0.46l-1.31,0.38
	c-0.65,0.2-1.24,0.32-1.87,0.45l-0.49,0.1c-0.27,0.06-0.49,0.1-0.76,0.14l-1.23,0.19c-0.94,0.12-1.74,0.19-2.45,0.26
	c-1.23,0.11-2.3,0.21-3.46,0.49c-1.82,0.41-3.84,1.33-6.01,2.74l-0.06,0.04c-2.29,1.59-3.9,2.96-5.23,4.46l-0.52,0.59
	c-0.19,0.22-0.33,0.42-0.45,0.59c-0.04,0.06-0.08,0.11-0.12,0.17l-0.5,0.69l-0.53,0.86c-0.68,1.1-1.25,2.33-1.8,3.55l-0.31,0.7
	c-0.44,0.98-0.89,1.99-1.4,2.97l-0.47,0.89l-0.31,0.5c0.15-1.86,0.08-3.66,0.01-5.53c0-0.24-0.01-0.47-0.02-0.71
	c-0.01-0.41-0.02-0.82-0.02-1.25l0.01-0.42c0.01-0.55,0.01-1.08,0.07-1.64l0.09-1.07l0.16-1.07c0.02-0.13,0.04-0.27,0.06-0.4
	c0.03-0.21,0.06-0.42,0.1-0.61l0.27-1.15c0.64-2.57,1.71-5.19,3.38-8.26c0.16-0.25,0.31-0.51,0.46-0.76c0.64-1.06,1.25-2.06,2-3.03
	l0.76-1.01c0.18-0.21,0.36-0.42,0.55-0.63l1.12-1.25c0.13-0.14,0.3-0.31,0.49-0.48c0.11-0.1,0.22-0.21,0.33-0.31l0.98-0.9
	c0.18-0.16,0.39-0.33,0.61-0.5c0.12-0.09,0.24-0.19,0.32-0.25l1.04-0.81l1.04-0.73c0.6-0.43,1.15-0.78,1.72-1.15l2.16-1.39
	l0.95-0.67c0.24-0.17,0.5-0.35,0.74-0.57l0.21-0.18c0.34-0.28,0.72-0.59,1.04-0.97l0.13-0.14c2.2,2.37,4.54,4.62,6.99,6.7
	c2.89,2.45,5.97,4.71,9.19,6.73l-0.11,0.08c-0.31,0.19-0.64,0.38-0.96,0.57L105.23,218.84z M133.32,227.8
	c-0.23,0.29-0.47,0.58-0.71,0.86l-1.14,1.34c-0.16,0.19-0.37,0.41-0.6,0.63c-0.11,0.11-0.22,0.22-0.33,0.33L129.5,232
	c-0.2,0.19-0.42,0.38-0.67,0.59c-0.12,0.1-0.24,0.2-0.33,0.29c-0.35,0.3-0.7,0.59-1.05,0.88l-1.1,0.8c-0.54,0.41-1.06,0.73-1.6,1.06
	l-0.43,0.26c-0.23,0.15-0.44,0.26-0.68,0.39l-1.09,0.6c-0.84,0.43-1.57,0.78-2.21,1.08c-1.12,0.53-2.09,0.98-3.09,1.64
	c-1.57,1.01-3.15,2.57-4.71,4.63l-0.04,0.06c-1.61,2.27-2.65,4.11-3.39,5.98l-0.28,0.73c-0.1,0.27-0.17,0.51-0.22,0.71
	c-0.02,0.07-0.04,0.13-0.06,0.2l-0.24,0.82l-0.2,0.99c-0.26,1.26-0.37,2.62-0.48,3.95l-0.06,0.76c-0.08,1.07-0.15,2.18-0.3,3.28
	l-0.14,1l-0.12,0.58c-0.49-1.8-1.18-3.47-1.89-5.2c-0.08-0.22-0.17-0.44-0.26-0.66c-0.15-0.38-0.3-0.76-0.44-1.17l-0.14-0.41
	c-0.18-0.52-0.35-1.01-0.5-1.56l-0.29-1.03l-0.22-1.06c-0.02-0.13-0.05-0.27-0.08-0.4c-0.04-0.21-0.09-0.41-0.11-0.6l-0.14-1.18
	c-0.28-2.63-0.17-5.47,0.35-8.92c0.06-0.29,0.12-0.58,0.17-0.87c0.24-1.22,0.46-2.37,0.85-3.53l0.37-1.21
	c0.09-0.26,0.2-0.52,0.3-0.77l0.63-1.56c0.07-0.18,0.18-0.39,0.3-0.62c0.07-0.14,0.14-0.27,0.21-0.41l0.61-1.18
	c0.12-0.23,0.26-0.46,0.4-0.68c0.08-0.13,0.16-0.26,0.21-0.35l0.7-1.12l0.73-1.04c0.42-0.6,0.81-1.12,1.22-1.66l1.55-2.05l0.66-0.95
	c0.17-0.24,0.35-0.5,0.51-0.79l0.14-0.24c0.22-0.38,0.47-0.81,0.64-1.27l0.08-0.18c2.87,1.48,5.85,2.79,8.86,3.9l0,0
	c3.56,1.32,7.22,2.38,10.94,3.18L133.32,227.8z M160.93,228.81c-0.12,0.35-0.24,0.7-0.37,1.05l-0.61,1.65
	c-0.09,0.23-0.21,0.51-0.35,0.8c-0.07,0.14-0.13,0.28-0.19,0.42l-0.62,1.33c-0.12,0.25-0.27,0.51-0.43,0.79
	c-0.08,0.14-0.15,0.27-0.22,0.38c-0.23,0.4-0.45,0.79-0.68,1.18l-0.76,1.13c-0.37,0.57-0.75,1.04-1.14,1.55l-0.31,0.39
	c-0.17,0.22-0.32,0.39-0.5,0.59l-0.82,0.94c-0.64,0.7-1.21,1.27-1.71,1.77c-0.87,0.88-1.63,1.64-2.34,2.6
	c-1.13,1.48-2.09,3.49-2.84,5.97l-0.02,0.07c-0.73,2.69-1.09,4.77-1.14,6.78l-0.02,0.78c-0.01,0.29,0.02,0.54,0.03,0.74
	c0.01,0.07,0.01,0.14,0.02,0.21l0.06,0.85l0.15,1c0.19,1.27,0.55,2.59,0.9,3.88l0.21,0.74c0.29,1.03,0.6,2.09,0.83,3.18l0.21,0.98
	l0.09,0.58c-1.08-1.52-2.29-2.85-3.55-4.24c-0.16-0.18-0.31-0.36-0.47-0.53c-0.27-0.31-0.54-0.61-0.82-0.95l-0.27-0.33
	c-0.35-0.43-0.68-0.83-1-1.3l-0.62-0.87l-0.57-0.92c-0.07-0.12-0.14-0.23-0.21-0.35c-0.11-0.18-0.22-0.36-0.31-0.53l-0.53-1.06
	c-1.16-2.38-2.03-5.08-2.72-8.5c-0.04-0.29-0.09-0.59-0.14-0.88c-0.19-1.23-0.37-2.38-0.41-3.61l-0.07-1.27
	c0-0.27,0.01-0.55,0.02-0.83l0.06-1.69c0-0.19,0.04-0.43,0.07-0.69c0.02-0.15,0.04-0.3,0.05-0.45l0.17-1.32
	c0.03-0.24,0.09-0.5,0.14-0.78c0.03-0.15,0.06-0.29,0.08-0.4l0.27-1.29l0.33-1.22c0.19-0.72,0.38-1.34,0.59-1.99l0.76-2.44l0.3-1.12
	c0.08-0.28,0.16-0.6,0.21-0.92l0.05-0.27c0.08-0.43,0.17-0.92,0.17-1.41l0.01-0.19c6.99,0.89,14.07,0.84,21.03-0.12L160.93,228.81z
	 M187.23,223.19c0,0.25-0.03,0.55-0.05,0.87c-0.01,0.16-0.03,0.31-0.04,0.46l-0.13,1.46c-0.03,0.27-0.08,0.57-0.13,0.88
	c-0.03,0.16-0.05,0.31-0.07,0.43c-0.08,0.45-0.15,0.9-0.24,1.35l-0.33,1.32c-0.15,0.66-0.34,1.24-0.54,1.85l-0.16,0.47
	c-0.08,0.26-0.17,0.48-0.26,0.73l-0.45,1.16c-0.37,0.87-0.7,1.6-1,2.25c-0.52,1.13-0.97,2.1-1.31,3.24
	c-0.55,1.78-0.77,3.99-0.63,6.58l0.01,0.07c0.23,2.78,0.61,4.86,1.25,6.76l0.25,0.74c0.09,0.27,0.2,0.5,0.28,0.68
	c0.03,0.06,0.06,0.13,0.09,0.19l0.35,0.78l0.48,0.89c0.61,1.13,1.4,2.25,2.17,3.33l0.45,0.62c0.63,0.87,1.28,1.77,1.87,2.7
	l0.54,0.85l0.28,0.52c-1.53-1.06-3.13-1.9-4.79-2.77c-0.21-0.12-0.41-0.23-0.62-0.34c-0.36-0.19-0.72-0.39-1.09-0.61l-0.37-0.22
	c-0.47-0.28-0.92-0.55-1.38-0.88l-0.88-0.61l-0.83-0.66c-0.11-0.09-0.22-0.18-0.33-0.27c-0.17-0.13-0.33-0.26-0.47-0.39l-0.86-0.81
	c-1.91-1.84-3.64-4.08-5.46-7.06c-0.14-0.26-0.28-0.52-0.43-0.78c-0.6-1.09-1.17-2.11-1.62-3.25l-0.5-1.17
	c-0.09-0.26-0.18-0.52-0.27-0.78l-0.52-1.6c-0.06-0.18-0.11-0.42-0.17-0.67c-0.03-0.15-0.07-0.3-0.11-0.45l-0.29-1.29
	c-0.06-0.26-0.09-0.52-0.13-0.78c-0.02-0.15-0.04-0.3-0.06-0.4l-0.18-1.31l-0.11-1.26c-0.07-0.74-0.1-1.39-0.13-2.07l-0.13-2.56
	l-0.1-1.16c-0.02-0.29-0.05-0.61-0.12-0.93l-0.05-0.27c-0.07-0.43-0.16-0.92-0.32-1.38l-0.05-0.18c3.15-0.72,6.27-1.62,9.3-2.71
	c3.57-1.28,7.06-2.82,10.42-4.6l0.01,0.14c0.01,0.37,0.01,0.75,0.01,1.13l0,0.24L187.23,223.19z M187.86,214.35
	c-4.02,2.36-8.28,4.36-12.67,5.93c-3.77,1.35-7.68,2.41-11.62,3.14c-8.52,1.56-17.35,1.64-25.92,0.21
	c-4.6-0.78-9.15-1.99-13.52-3.61c-3.75-1.39-7.42-3.09-10.91-5.06c-4.06-2.3-7.92-5-11.48-8.01c-3.06-2.59-5.93-5.45-8.54-8.5
	c-3.02-3.55-5.72-7.39-8.03-11.44c-1.98-3.47-3.7-7.13-5.1-10.88c-1.63-4.37-2.86-8.92-3.64-13.53c-0.67-3.94-1.04-7.97-1.07-11.98
	c-0.03-4.66,0.37-9.35,1.2-13.95h0c0.71-3.93,1.75-7.85,3.09-11.63c1.56-4.39,3.55-8.66,5.9-12.69c2.02-3.45,4.33-6.77,6.88-9.87
	c2.97-3.59,6.3-6.93,9.88-9.91c3.08-2.56,6.39-4.89,9.85-6.92c4.02-2.36,8.28-4.36,12.67-5.93c3.77-1.35,7.68-2.41,11.62-3.14
	c8.52-1.56,17.35-1.64,25.92-0.21c4.6,0.78,9.15,1.99,13.52,3.61c3.75,1.39,7.42,3.09,10.91,5.06c4.06,2.3,7.92,5,11.48,8.01
	c3.05,2.59,5.93,5.45,8.54,8.5c3.02,3.55,5.72,7.4,8.03,11.44c1.98,3.47,3.7,7.13,5.1,10.88c1.63,4.37,2.86,8.92,3.64,13.52
	c0.67,3.94,1.04,7.97,1.07,11.98c0.03,4.66-0.37,9.35-1.2,13.95h0c-0.71,3.93-1.75,7.85-3.09,11.63c-1.56,4.39-3.55,8.66-5.9,12.69
	c-2.02,3.45-4.33,6.77-6.88,9.87c-2.97,3.59-6.3,6.93-9.88,9.91C194.63,209.99,191.31,212.31,187.86,214.35z M216.39,235.54
	l0.49,0.61c0.18,0.22,0.36,0.4,0.5,0.55c0.05,0.05,0.1,0.1,0.15,0.15l0.6,0.62l0.76,0.67c0.96,0.86,2.08,1.63,3.18,2.39l0.64,0.44
	c0.89,0.6,1.8,1.22,2.68,1.9l0.79,0.62l0.44,0.39c-1.8-0.47-3.59-0.71-5.45-0.97c-0.24-0.04-0.47-0.07-0.7-0.11
	c-0.4-0.06-0.81-0.12-1.23-0.2l-0.42-0.08c-0.54-0.1-1.05-0.2-1.6-0.35l-1.04-0.27l-1-0.33c-0.13-0.05-0.27-0.09-0.4-0.14
	c-0.2-0.07-0.4-0.13-0.58-0.21l-1.09-0.47c-2.42-1.08-4.82-2.59-7.54-4.76c-0.22-0.2-0.45-0.39-0.67-0.59
	c-0.93-0.81-1.82-1.58-2.63-2.5l-0.87-0.93c-0.18-0.21-0.35-0.43-0.52-0.64l-1.04-1.33c-0.12-0.15-0.25-0.35-0.39-0.57
	c-0.08-0.13-0.17-0.26-0.25-0.38l-0.72-1.12c-0.14-0.22-0.26-0.46-0.39-0.69c-0.07-0.13-0.14-0.27-0.2-0.36l-0.62-1.17l-0.54-1.15
	c-0.32-0.67-0.57-1.27-0.83-1.9l-0.99-2.36l-0.49-1.05c-0.12-0.26-0.26-0.56-0.43-0.84l-0.14-0.24c-0.22-0.38-0.46-0.81-0.78-1.19
	l-0.11-0.15c2.72-1.75,5.34-3.67,7.81-5.72v0c2.92-2.42,5.67-5.07,8.22-7.89l0.06,0.12c0.14,0.34,0.27,0.7,0.4,1.05l0.59,1.65
	c0.08,0.23,0.16,0.52,0.25,0.83c0.04,0.15,0.08,0.3,0.12,0.45l0.37,1.42c0.07,0.27,0.12,0.56,0.18,0.88
	c0.03,0.15,0.06,0.31,0.08,0.43c0.08,0.45,0.16,0.9,0.24,1.34l0.14,1.36c0.08,0.67,0.1,1.28,0.12,1.92l0.02,0.5
	c0.01,0.27,0.01,0.5,0,0.77l-0.03,1.25c-0.05,0.95-0.11,1.75-0.17,2.45c-0.1,1.23-0.19,2.3-0.12,3.49c0.09,1.86,0.65,4.01,1.66,6.4
	l0.03,0.07C214.07,232.14,215.14,233.97,216.39,235.54z M230.79,192.11c0.28,0.91,0.49,1.68,0.68,2.36c0.33,1.2,0.61,2.23,1.08,3.32
	c0.72,1.72,1.98,3.55,3.74,5.45l0.05,0.05c1.96,1.98,3.59,3.33,5.3,4.38l0.67,0.41c0.25,0.15,0.48,0.26,0.66,0.34
	c0.06,0.03,0.13,0.06,0.19,0.09l0.77,0.37l0.94,0.37c1.2,0.48,2.57,0.84,3.81,1.16l0.75,0.19c1.04,0.26,2.11,0.53,3.17,0.87
	l0.96,0.31l0.55,0.21c-1.86,0.18-3.62,0.56-5.45,0.95c-0.23,0.04-0.46,0.09-0.69,0.14c-0.4,0.08-0.8,0.17-1.23,0.23l-0.42,0.07
	c-0.55,0.09-1.06,0.17-1.63,0.22l-1.07,0.1l-1.08,0.03c-0.13,0-0.27,0-0.41,0.01c-0.21,0.01-0.42,0.01-0.61,0l-1.18-0.07
	c-2.64-0.18-5.41-0.79-8.72-1.9c-0.28-0.11-0.55-0.22-0.83-0.32c-1.16-0.45-2.25-0.87-3.33-1.45l-1.13-0.57
	c-0.24-0.14-0.47-0.28-0.71-0.43l-1.42-0.89c-0.16-0.1-0.36-0.25-0.56-0.4c-0.12-0.09-0.24-0.18-0.37-0.27l-1.06-0.8
	c-0.21-0.16-0.41-0.34-0.6-0.51c-0.11-0.1-0.22-0.2-0.3-0.27l-0.98-0.88l-0.9-0.89c-0.53-0.52-0.97-1-1.43-1.5l-1.74-1.88
	l-0.82-0.82c-0.21-0.21-0.44-0.44-0.69-0.64l-0.21-0.18c-0.33-0.28-0.71-0.6-1.14-0.86l-0.16-0.11c1.96-2.58,3.76-5.27,5.38-8.05
	c1.91-3.28,3.6-6.7,5.03-10.22l0.09,0.1c0.25,0.28,0.49,0.57,0.74,0.86l1.11,1.34c0.16,0.19,0.33,0.44,0.52,0.7
	c0.09,0.13,0.18,0.25,0.27,0.38l0.84,1.2c0.15,0.23,0.31,0.49,0.47,0.76c0.08,0.14,0.16,0.27,0.22,0.38
	c0.23,0.39,0.46,0.79,0.68,1.18l0.6,1.23c0.31,0.61,0.53,1.17,0.77,1.76l0.19,0.47c0.11,0.25,0.18,0.48,0.27,0.73L230.79,192.11z
	 M229.58,175l-1.06-0.49c-0.26-0.12-0.55-0.26-0.86-0.36l-0.26-0.09c-0.41-0.15-0.88-0.33-1.36-0.42l-0.19-0.04
	c0.96-3.09,1.73-6.24,2.3-9.41h0c0.68-3.73,1.09-7.53,1.23-11.32l0.12,0.06c0.33,0.18,0.65,0.37,0.98,0.55l1.51,0.89
	c0.21,0.12,0.46,0.3,0.72,0.48c0.13,0.09,0.26,0.18,0.39,0.27l1.2,0.84c0.22,0.16,0.45,0.35,0.7,0.56c0.12,0.1,0.24,0.2,0.34,0.28
	c0.35,0.29,0.7,0.58,1.04,0.88l0.98,0.95c0.5,0.46,0.9,0.92,1.33,1.39l0.33,0.37c0.19,0.2,0.33,0.39,0.5,0.6l0.78,0.97
	c0.57,0.75,1.04,1.41,1.45,1.99c0.72,1.01,1.33,1.89,2.15,2.76c1.27,1.37,3.08,2.66,5.38,3.84l0.07,0.03
	c2.52,1.19,4.51,1.9,6.48,2.3l0.77,0.15c0.28,0.06,0.53,0.08,0.74,0.1c0.07,0.01,0.14,0.01,0.21,0.02l0.85,0.09l1.01,0.03
	c1.29,0.04,2.64-0.09,3.97-0.21l0.77-0.08c1.06-0.11,2.17-0.22,3.27-0.27l1.01-0.04l0.59,0.01c-1.68,0.8-3.21,1.76-4.8,2.76
	c-0.21,0.12-0.41,0.25-0.61,0.37c-0.35,0.21-0.7,0.43-1.07,0.64l-0.38,0.21c-0.48,0.27-0.94,0.52-1.45,0.76l-0.97,0.46l-1.01,0.4
	c-0.13,0.05-0.25,0.1-0.38,0.15c-0.2,0.08-0.39,0.16-0.58,0.21l-1.13,0.34c-2.55,0.73-5.36,1.11-8.84,1.2
	c-0.3-0.01-0.59-0.01-0.89-0.02c-1.24-0.02-2.41-0.05-3.62-0.22l-1.26-0.15c-0.27-0.05-0.54-0.1-0.81-0.16l-1.65-0.35
	c-0.18-0.04-0.42-0.11-0.67-0.19c-0.15-0.04-0.29-0.09-0.44-0.13l-1.27-0.39c-0.25-0.08-0.5-0.18-0.74-0.28
	c-0.14-0.06-0.28-0.11-0.38-0.15l-1.22-0.49l-1.15-0.53c-0.67-0.31-1.24-0.61-1.85-0.92L229.58,175z M181.4,147.05l-17.64,3.02
	l17.6,3.19l-0.85,4.7l-17.6-3.19l15.45,9.02l-2.41,4.13l-15.45-9.02l11.43,13.76l-3.68,3.06l-11.43-13.76l6.04,16.84l-4.5,1.61
	l-6.04-16.84l-0.09,17.89l-4.78-0.02l0.09-17.89l-6.2,16.78l-4.48-1.66l6.2-16.78l-11.57,13.65l-3.65-3.09l11.57-13.65l-15.54,8.87
	l-2.37-4.15l15.54-8.87l-17.63,3.02l-0.81-4.71l17.64-3.02l-17.6-3.19l0.85-4.7l17.6,3.19l-15.45-9.02l2.41-4.13l15.45,9.02
	l-11.43-13.76l3.68-3.06l11.43,13.76l-6.04-16.84l4.5-1.61l6.04,16.84l0.09-17.89l4.78,0.02l-0.09,17.89l6.2-16.78l4.48,1.66
	l-6.2,16.78l11.57-13.65l3.65,3.09l-11.57,13.65l15.54-8.87l2.37,4.15l-15.54,8.87l17.63-3.02L181.4,147.05z" opacity="0.5"/>
</svg>
