<?xml version="1.0" encoding="utf-8"?>
<!-- Generator: Adobe Illustrator 26.3.1, SVG Export Plug-In . SVG Version: 6.00 Build 0)  -->
<svg version="1.1" id="Warstwa_1" xmlns="http://www.w3.org/2000/svg" xmlns:xlink="http://www.w3.org/1999/xlink" x="0px" y="0px"
	 viewBox="0 0 300 300" style="enable-background:new 0 0 300 300;" xml:space="preserve">
<style type="text/css">
	.st0{fill:#70C0EC;}
</style>
<path class="st0" d="M150,118.52c-17.36,0-31.48,14.12-31.48,31.48s14.12,31.48,31.48,31.48s31.48-14.12,31.48-31.48
	S167.36,118.52,150,118.52z M150,176.6c-14.67,0-26.61-11.94-26.61-26.6c0-14.67,11.93-26.6,26.61-26.6
	c14.67,0,26.61,11.94,26.61,26.6C176.61,164.67,164.67,176.6,150,176.6z M150,136.39c-7.5,0-13.61,6.1-13.61,13.61
	s6.1,13.61,13.61,13.61c7.5,0,13.61-6.1,13.61-13.61S157.5,136.39,150,136.39z M150,158.73c-4.82,0-8.73-3.92-8.73-8.73
	s3.92-8.73,8.73-8.73s8.73,3.92,8.73,8.73S154.82,158.73,150,158.73z M118.19,77.52c1.38,0.84,2.94,1.26,4.52,1.26
	c1.06,0,2.13-0.19,3.17-0.58c0.23-0.09,0.47-0.17,0.71-0.25l0,0c0.24-0.08,0.47-0.15,0.72-0.22c2.66-0.74,4.78-2.59,5.82-5.08
	c1.04-2.47,0.89-5.24-0.39-7.59L107.27,18.5l6.77,52.65C114.39,73.8,115.9,76.13,118.19,77.52z M128.46,67.41
	c0.57,1.04,0.63,2.27,0.17,3.37c-0.46,1.1-1.42,1.93-2.63,2.27c-0.31,0.09-0.61,0.18-0.92,0.28c-0.3,0.1-0.6,0.2-0.9,0.31
	c-1.18,0.44-2.44,0.34-3.47-0.28c-1.02-0.62-1.69-1.65-1.84-2.83l-3.47-26.99L128.46,67.41z M181.81,222.48
	c-2.3-1.4-5.11-1.65-7.69-0.68c-0.23,0.09-0.47,0.17-0.71,0.25l0,0c-0.24,0.08-0.47,0.15-0.72,0.22c-2.66,0.74-4.78,2.59-5.82,5.08
	c-1.04,2.47-0.89,5.24,0.39,7.59l25.47,46.57l-6.77-52.65C185.61,226.2,184.1,223.87,181.81,222.48z M171.54,232.59
	c-0.57-1.04-0.63-2.27-0.17-3.37c0.46-1.1,1.42-1.93,2.63-2.27c0.31-0.09,0.61-0.18,0.92-0.28c0.3-0.1,0.6-0.2,0.9-0.31
	c1.18-0.44,2.44-0.34,3.47,0.28c1.02,0.62,1.69,1.65,1.84,2.83l3.47,26.99L171.54,232.59z M81.66,110.06
	c2.69-0.22,5.1-1.67,6.63-3.97c0.14-0.21,0.28-0.41,0.43-0.61c0.15-0.2,0.3-0.4,0.45-0.6c1.72-2.16,2.34-4.91,1.73-7.53
	c-0.61-2.61-2.36-4.76-4.78-5.91L38.14,68.73l36.42,38.61c1.67,1.77,3.95,2.75,6.36,2.75C81.17,110.09,81.41,110.08,81.66,110.06z
	 M78.11,103.99L59.44,84.2l24.59,11.64c1.07,0.51,1.85,1.46,2.12,2.62c0.27,1.16-0.02,2.4-0.8,3.38c-0.2,0.25-0.39,0.5-0.58,0.76
	c-0.19,0.26-0.37,0.52-0.55,0.78c-0.7,1.05-1.78,1.71-2.97,1.81C80.07,105.3,78.92,104.86,78.11,103.99z M218.34,189.94
	c-2.69,0.22-5.1,1.67-6.63,3.97c-0.14,0.21-0.28,0.41-0.43,0.62c-0.15,0.2-0.3,0.4-0.45,0.6c-1.72,2.16-2.34,4.91-1.73,7.53
	c0.61,2.61,2.36,4.76,4.78,5.91l47.98,22.71l-36.42-38.61C223.6,190.71,221.01,189.71,218.34,189.94z M240.56,215.8l-24.59-11.64
	c-1.07-0.51-1.85-1.46-2.12-2.62c-0.27-1.16,0.02-2.4,0.8-3.38c0.2-0.25,0.39-0.5,0.58-0.76c0.19-0.26,0.37-0.52,0.55-0.78
	c0.7-1.05,1.78-1.71,2.97-1.81c0.11-0.01,0.22-0.01,0.33-0.01c1.07,0,2.08,0.43,2.82,1.22L240.56,215.8z M71.23,142.14
	c-2.03-1.75-4.71-2.47-7.34-1.97L11.73,150l52.16,9.83c0.55,0.1,1.09,0.15,1.64,0.15c2.08,0,4.09-0.74,5.7-2.13
	c2.04-1.76,3.14-4.35,3.03-7.11c-0.01-0.25-0.02-0.5-0.02-0.75s0.01-0.5,0.02-0.75C74.38,146.49,73.27,143.9,71.23,142.14z
	 M69.39,150.95c0.05,1.26-0.44,2.43-1.34,3.21c-0.9,0.78-2.09,1.09-3.26,0.87L38.06,150l26.74-5.04c1.17-0.22,2.36,0.1,3.26,0.87
	c0.9,0.78,1.39,1.95,1.34,3.21c-0.01,0.32-0.02,0.64-0.02,0.96C69.37,150.32,69.38,150.64,69.39,150.95z M228.77,157.86
	c1.61,1.39,3.62,2.13,5.7,2.13c0.54,0,1.09-0.05,1.64-0.15l52.16-9.83l-52.16-9.83c-2.63-0.5-5.31,0.22-7.34,1.97
	c-2.04,1.76-3.14,4.35-3.03,7.11c0.01,0.25,0.02,0.5,0.02,0.75s-0.01,0.5-0.02,0.75C225.62,153.51,226.73,156.1,228.77,157.86z
	 M230.61,149.05c-0.05-1.26,0.44-2.43,1.34-3.21c0.71-0.62,1.61-0.94,2.53-0.94c0.24,0,0.48,0.02,0.73,0.07l26.74,5.04l-26.74,5.04
	c-1.17,0.22-2.36-0.1-3.26-0.87c-0.9-0.78-1.39-1.95-1.34-3.21c0.01-0.32,0.02-0.64,0.02-0.96
	C230.63,149.68,230.62,149.36,230.61,149.05z M90.89,202.65c0.62-2.62-0.01-5.37-1.73-7.53c-0.15-0.2-0.31-0.39-0.45-0.6
	c-0.15-0.2-0.29-0.41-0.43-0.62c-1.53-2.3-3.94-3.75-6.63-3.97c-2.67-0.23-5.26,0.77-7.1,2.72l-36.42,38.61l47.98-22.71
	C88.54,207.42,90.28,205.26,90.89,202.65z M84.03,204.16L59.44,215.8l18.67-19.79c0.74-0.78,1.75-1.22,2.82-1.22
	c0.11,0,0.22,0,0.33,0.01c1.19,0.1,2.27,0.76,2.97,1.81c0.18,0.26,0.36,0.53,0.55,0.79c0.19,0.26,0.38,0.51,0.58,0.76
	c0.78,0.99,1.08,2.22,0.8,3.38C85.88,202.69,85.1,203.65,84.03,204.16z M209.11,97.35c-0.62,2.62,0.01,5.37,1.73,7.53
	c0.15,0.2,0.31,0.39,0.45,0.6c0.15,0.2,0.29,0.41,0.43,0.62c1.53,2.3,3.94,3.75,6.63,3.97c0.25,0.02,0.49,0.03,0.74,0.03
	c2.4,0,4.69-0.98,6.36-2.75l36.42-38.61l-47.98,22.71C211.46,92.58,209.72,94.74,209.11,97.35z M215.97,95.84l24.59-11.64
	l-18.67,19.79c-0.82,0.86-1.96,1.31-3.15,1.21c-1.19-0.1-2.27-0.76-2.97-1.81c-0.18-0.26-0.36-0.53-0.55-0.79
	c-0.19-0.26-0.38-0.51-0.58-0.76c-0.78-0.99-1.08-2.22-0.8-3.38C214.12,97.31,214.9,96.35,215.97,95.84z M127.31,222.26
	c-0.24-0.07-0.48-0.14-0.71-0.22l0,0c-0.24-0.08-0.47-0.16-0.71-0.25c-2.59-0.96-5.39-0.71-7.69,0.68c-2.29,1.39-3.8,3.71-4.14,6.37
	l-6.77,52.65l25.47-46.57c1.29-2.35,1.43-5.12,0.39-7.59C132.09,224.85,129.97,223,127.31,222.26z M128.46,232.59l-13.05,23.87
	l3.47-26.99c0.15-1.18,0.82-2.21,1.84-2.83c0.6-0.37,1.29-0.55,2-0.55c0.49,0,0.99,0.09,1.47,0.27c0.3,0.11,0.6,0.21,0.9,0.31
	c0.31,0.1,0.61,0.19,0.92,0.28c1.21,0.34,2.17,1.16,2.64,2.27C129.1,230.32,129.03,231.55,128.46,232.59z M172.69,77.74
	c0.24,0.07,0.48,0.14,0.71,0.22l0,0c0.24,0.08,0.47,0.16,0.71,0.25c1.04,0.39,2.11,0.58,3.17,0.58c1.58,0,3.14-0.43,4.52-1.26
	c2.29-1.39,3.8-3.71,4.14-6.37l6.77-52.65l-25.47,46.57c-1.29,2.35-1.43,5.12-0.39,7.59C167.91,75.15,170.03,77,172.69,77.74z
	 M171.54,67.41l13.05-23.87l-3.47,26.99c-0.15,1.18-0.82,2.21-1.84,2.83c-1.02,0.62-2.28,0.72-3.47,0.28
	c-0.3-0.11-0.6-0.21-0.9-0.31c-0.31-0.1-0.61-0.19-0.92-0.28c-1.21-0.34-2.17-1.16-2.64-2.27C170.9,69.68,170.97,68.45,171.54,67.41
	z M290,104.51l-94.04,12.1l40.57-85.7l-68.97,65.06L150,2.8l-17.55,93.18L63.48,30.91l40.57,85.7L10,104.51L93.19,150L10,195.49
	l94.04-12.1l-40.57,85.7l68.97-65.06L150,297.2l17.55-93.18l68.97,65.06l-40.57-85.7l94.04,12.1L206.81,150L290,104.51z
	 M187.49,154.62c-0.3,2.39-0.82,4.76-1.57,7.05c-0.74,2.29-1.71,4.52-2.88,6.63l-0.68,1.24l4.32,7.12l-8.11-1.91l-0.96,1.03
	c-1.64,1.76-3.46,3.37-5.41,4.78c-1.95,1.42-4.04,2.65-6.22,3.67l-1.28,0.6l-0.69,8.3l-5.43-6.31l-1.39,0.27
	c-4.73,0.92-9.65,0.92-14.38,0l-1.39-0.27l-5.43,6.31l-0.69-8.3l-1.28-0.6c-2.18-1.02-4.27-2.25-6.22-3.67
	c-1.95-1.41-3.77-3.02-5.41-4.78l-0.96-1.03l-8.11,1.91l4.32-7.12l-0.68-1.24c-1.17-2.11-2.13-4.34-2.88-6.63
	c-0.74-2.29-1.27-4.66-1.57-7.05l-0.17-1.4l-7.68-3.22l7.68-3.22l0.17-1.4c0.3-2.39,0.82-4.76,1.57-7.05
	c0.74-2.29,1.71-4.52,2.88-6.63l0.68-1.24l-4.32-7.12l8.11,1.91l0.96-1.03c1.64-1.76,3.46-3.37,5.41-4.78
	c1.95-1.42,4.04-2.65,6.22-3.67l1.28-0.6l0.69-8.3l5.43,6.31l1.39-0.27c4.73-0.92,9.65-0.92,14.38,0l1.39,0.27l5.43-6.31l0.69,8.3
	l1.28,0.6c2.18,1.02,4.27,2.25,6.22,3.67c1.95,1.41,3.77,3.02,5.41,4.78l0.96,1.03l8.11-1.91l-4.32,7.12l0.68,1.24
	c1.17,2.11,2.13,4.34,2.88,6.63c0.74,2.29,1.27,4.66,1.57,7.05l0.17,1.4l7.68,3.22l-7.68,3.22L187.49,154.62z M201.55,147.32
	l-9.42-3.95c-0.35-2.22-0.88-4.41-1.57-6.55c-0.69-2.13-1.56-4.22-2.58-6.22l5.3-8.73l71.68-9.22L201.55,147.32z M190.13,117.53
	l-9.94,2.34c-1.59-1.59-3.3-3.06-5.12-4.37c-1.81-1.32-3.74-2.5-5.74-3.52l-0.84-10.18l52.57-49.59L190.13,117.53z M150,29.12
	l13.38,71.02l-6.67,7.74c-2.22-0.35-4.47-0.53-6.71-0.53c-2.24,0-4.49,0.18-6.71,0.53l-6.67-7.74L150,29.12z M131.52,101.8
	l-0.84,10.18c-2,1.02-3.93,2.2-5.74,3.52c-1.81,1.32-3.53,2.79-5.12,4.37l-9.94-2.34L78.95,52.21L131.52,101.8z M106.72,121.87
	l5.3,8.73c-1.02,2-1.89,4.09-2.58,6.22c-0.69,2.13-1.22,4.33-1.57,6.55l-9.42,3.95l-63.41-34.67L106.72,121.87z M98.45,152.68
	l9.42,3.95c0.35,2.22,0.88,4.41,1.57,6.55c0.69,2.13,1.56,4.22,2.58,6.22l-5.3,8.73l-71.68,9.22L98.45,152.68z M109.87,182.47
	l9.94-2.34c1.59,1.59,3.3,3.06,5.12,4.37c1.81,1.32,3.74,2.5,5.74,3.52l0.84,10.18l-52.57,49.59L109.87,182.47z M150,270.88
	l-13.38-71.02l6.67-7.74c4.44,0.7,8.99,0.7,13.42,0l6.67,7.74L150,270.88z M168.48,198.2l0.84-10.18c2-1.02,3.93-2.2,5.74-3.52
	c1.81-1.32,3.53-2.79,5.12-4.37l9.94,2.34l30.92,65.32L168.48,198.2z M193.28,178.13l-5.3-8.73c1.02-2,1.89-4.09,2.58-6.22
	c0.69-2.13,1.22-4.33,1.57-6.55l9.42-3.95l63.41,34.67L193.28,178.13z"/>
</svg>
