<?xml version="1.0" encoding="utf-8"?>
<!-- Generator: Adobe Illustrator 26.3.1, SVG Export Plug-In . SVG Version: 6.00 Build 0)  -->
<svg version="1.1" id="Warstwa_1" xmlns="http://www.w3.org/2000/svg" xmlns:xlink="http://www.w3.org/1999/xlink" x="0px" y="0px"
	 viewBox="0 0 300 300" style="enable-background:new 0 0 300 300;" xml:space="preserve">
<style type="text/css">
	.st0{fill:#8CC586;}
</style>
<path class="st0" d="M150,76.83c-40.34,0-73.17,32.82-73.17,73.17s32.82,73.17,73.17,73.17s73.17-32.82,73.17-73.17
	S190.34,76.83,150,76.83z M150,218.03c-37.51,0-68.03-30.52-68.03-68.03S112.49,81.97,150,81.97s68.03,30.52,68.03,68.03
	S187.51,218.03,150,218.03z M197.8,140.23c-1.2-1.71-2.33-3.32-2.83-4.84c-0.53-1.62-0.57-3.67-0.62-5.83
	c-0.08-3.52-0.16-7.16-2.31-10.11c-2.17-2.98-5.78-4.23-8.96-5.33c-2.03-0.7-3.95-1.37-5.3-2.35c-1.33-0.97-2.53-2.57-3.81-4.27
	c-2.04-2.71-4.35-5.79-7.9-6.94c-3.41-1.11-6.87-0.07-10.22,0.94c-2.1,0.63-4.09,1.23-5.85,1.23c-1.76,0-3.75-0.6-5.85-1.23
	c-3.34-1.01-6.8-2.05-10.22-0.94c-3.55,1.16-5.86,4.23-7.9,6.94c-1.28,1.7-2.48,3.3-3.81,4.27c-1.35,0.99-3.27,1.65-5.3,2.35
	c-3.19,1.1-6.8,2.36-8.96,5.33c-2.15,2.95-2.23,6.59-2.31,10.11c-0.05,2.16-0.09,4.2-0.62,5.83c-0.49,1.51-1.63,3.13-2.83,4.84
	c-1.96,2.8-4.19,5.97-4.19,9.77s2.23,6.97,4.19,9.77c1.2,1.71,2.33,3.32,2.83,4.84c0.53,1.62,0.57,3.67,0.62,5.83
	c0.08,3.52,0.16,7.16,2.31,10.11c2.17,2.98,5.78,4.23,8.96,5.33c2.03,0.7,3.95,1.37,5.3,2.35c1.33,0.97,2.53,2.57,3.81,4.27
	c2.04,2.71,4.35,5.79,7.9,6.94c3.41,1.11,6.87,0.07,10.22-0.94c2.1-0.63,4.09-1.23,5.85-1.23c1.76,0,3.75,0.6,5.85,1.23
	c2.32,0.7,4.7,1.41,7.08,1.41c1.05,0,2.1-0.14,3.14-0.48c3.55-1.16,5.86-4.23,7.9-6.94c1.28-1.7,2.48-3.3,3.81-4.27
	c1.35-0.99,3.27-1.65,5.3-2.35c3.19-1.1,6.8-2.36,8.97-5.33c2.15-2.95,2.23-6.59,2.31-10.11c0.05-2.16,0.09-4.2,0.62-5.83
	c0.49-1.51,1.63-3.13,2.83-4.84c1.96-2.8,4.19-5.97,4.19-9.77S199.76,143.03,197.8,140.23z M193.6,156.82
	c-1.36,1.94-2.78,3.95-3.51,6.2c-0.76,2.34-0.82,4.86-0.87,7.3c-0.06,2.86-0.12,5.55-1.32,7.2c-1.22,1.68-3.78,2.56-6.5,3.51
	c-2.29,0.8-4.67,1.62-6.64,3.06c-1.94,1.42-3.44,3.41-4.89,5.33c-1.74,2.31-3.38,4.49-5.39,5.15c-1.89,0.62-4.44-0.16-7.15-0.97
	c-2.37-0.71-4.81-1.45-7.33-1.45c-2.52,0-4.96,0.74-7.33,1.45c-2.71,0.81-5.26,1.58-7.15,0.97c-2.01-0.65-3.65-2.84-5.39-5.15
	c-1.45-1.92-2.94-3.91-4.89-5.33c-1.97-1.44-4.34-2.26-6.64-3.05c-2.71-0.94-5.28-1.83-6.5-3.51c-1.2-1.65-1.26-4.35-1.32-7.2
	c-0.05-2.44-0.11-4.96-0.87-7.3c-0.73-2.25-2.14-4.25-3.51-6.2c-1.68-2.39-3.26-4.64-3.26-6.82s1.58-4.43,3.26-6.82
	c1.36-1.94,2.78-3.95,3.51-6.2c0.76-2.34,0.82-4.86,0.87-7.3c0.06-2.86,0.12-5.55,1.32-7.2c1.22-1.68,3.78-2.56,6.5-3.51
	c2.29-0.8,4.67-1.62,6.64-3.05c1.95-1.42,3.44-3.41,4.89-5.33c1.74-2.31,3.38-4.49,5.39-5.15c1.89-0.61,4.44,0.16,7.15,0.97
	c2.37,0.71,4.81,1.45,7.33,1.45c2.52,0,4.96-0.74,7.33-1.45c2.71-0.81,5.26-1.58,7.15-0.97c2.01,0.65,3.65,2.84,5.39,5.15
	c1.45,1.92,2.94,3.91,4.89,5.33c1.97,1.44,4.34,2.26,6.64,3.06c2.71,0.94,5.28,1.83,6.5,3.51c1.2,1.65,1.26,4.35,1.32,7.2
	c0.05,2.44,0.11,4.96,0.87,7.3c0.73,2.25,2.14,4.26,3.51,6.2c1.68,2.39,3.26,4.64,3.26,6.82S195.27,154.43,193.6,156.82z
	 M150,136.84c-7.25,0-13.16,5.9-13.16,13.16s5.9,13.16,13.16,13.16c7.25,0,13.16-5.9,13.16-13.16S157.25,136.84,150,136.84z
	 M150,158.02c-4.42,0-8.02-3.6-8.02-8.02s3.6-8.02,8.02-8.02c4.42,0,8.02,3.6,8.02,8.02S154.42,158.02,150,158.02z M241.74,150
	L290,104.51l-65.78-8.43l12.31-65.17l-58.18,31.84L150,2.8l-28.35,59.96L63.48,30.91l12.31,65.17L10,104.51L58.26,150L10,195.49
	l65.78,8.43l-12.31,65.17l58.18-31.84L150,297.2l28.35-59.96l58.18,31.84l-12.31-65.17l65.78-8.43L241.74,150z M278.58,108.22
	L240.61,144c-1.02-15.52-5.95-29.98-13.81-42.42L278.58,108.22z M229.46,40.63l-9.69,51.31c-9.59-11.5-21.96-20.6-36.07-26.26
	L229.46,40.63z M150,14.81l22.29,47.15c-7.14-1.81-14.6-2.77-22.29-2.77c-7.69,0-15.16,0.96-22.29,2.77L150,14.81z M70.54,40.63
	l45.76,25.05c-14.11,5.66-26.48,14.76-36.07,26.26L70.54,40.63z M21.42,108.22l51.77-6.64c-7.87,12.43-12.8,26.9-13.81,42.42
	L21.42,108.22z M21.42,191.78L59.39,156c1.02,15.52,5.95,29.98,13.81,42.42L21.42,191.78z M70.54,259.37l9.69-51.31
	c9.59,11.5,21.96,20.6,36.07,26.26L70.54,259.37z M150,285.19l-22.29-47.15c7.14,1.81,14.6,2.77,22.29,2.77
	c7.69,0,15.16-0.96,22.29-2.77L150,285.19z M229.46,259.37l-45.76-25.05c14.11-5.66,26.48-14.76,36.07-26.26L229.46,259.37z
	 M150,235.68c-47.25,0-85.68-38.44-85.68-85.68S102.75,64.32,150,64.32s85.68,38.44,85.68,85.68S197.25,235.68,150,235.68z
	 M240.61,156l37.96,35.78l-51.77,6.64C234.67,185.98,239.6,171.51,240.61,156z"/>
</svg>
