<?xml version="1.0" encoding="utf-8"?>
<!-- Generator: Adobe Illustrator 26.3.1, SVG Export Plug-In . SVG Version: 6.00 Build 0)  -->
<svg version="1.1" id="Warstwa_1" xmlns="http://www.w3.org/2000/svg" xmlns:xlink="http://www.w3.org/1999/xlink" x="0px" y="0px"
	 viewBox="0 0 300 300" style="enable-background:new 0 0 300 300;" xml:space="preserve">
<style type="text/css">
	.st0{fill:#FDCB66;}
</style>
<path class="st0" d="M150,80.78c-38.17,0-69.22,31.05-69.22,69.22s31.05,69.22,69.22,69.22s69.22-31.05,69.22-69.22
	S188.17,80.78,150,80.78z M150,214.36c-35.49,0-64.36-28.87-64.36-64.36S114.51,85.64,150,85.64s64.36,28.87,64.36,64.36
	S185.49,214.36,150,214.36z M150,60.59c7.09,0,12.86-5.77,12.86-12.86c0-6.07-9.53-29.57-10.62-32.23L150,10l-2.25,5.5
	c-1.09,2.66-10.62,26.16-10.62,32.23C137.14,54.82,142.91,60.59,150,60.59z M150,22.98c3.73,9.56,8.01,21.57,8.01,24.75
	c0,4.42-3.59,8.01-8.01,8.01c-4.42,0-8.01-3.59-8.01-8.01C141.99,44.55,146.27,32.54,150,22.98z M150,239.41
	c-7.09,0-12.86,5.77-12.86,12.86c0,6.07,9.53,29.57,10.62,32.23L150,290l2.25-5.5c1.09-2.66,10.62-26.16,10.62-32.23
	C162.86,245.18,157.09,239.41,150,239.41z M150,277.02c-3.73-9.56-8.01-21.57-8.01-24.75c0-4.42,3.59-8.01,8.01-8.01
	c4.42,0,8.01,3.59,8.01,8.01C158.01,255.45,153.73,267.46,150,277.02z M284.5,147.75c-2.66-1.09-26.16-10.62-32.23-10.62
	c-7.09,0-12.86,5.77-12.86,12.86s5.77,12.86,12.86,12.86c6.07,0,29.57-9.53,32.23-10.62L290,150L284.5,147.75z M252.27,158.01
	c-4.42,0-8.01-3.59-8.01-8.01c0-4.42,3.59-8.01,8.01-8.01c3.18,0,15.19,4.28,24.75,8.01C267.46,153.73,255.45,158.01,252.27,158.01z
	 M60.59,150c0-7.09-5.77-12.86-12.86-12.86c-6.07,0-29.57,9.53-32.23,10.62L10,150l5.5,2.25c2.66,1.09,26.16,10.62,32.23,10.62
	C54.82,162.86,60.59,157.09,60.59,150z M47.73,141.99c4.42,0,8.01,3.59,8.01,8.01c0,4.42-3.59,8.01-8.01,8.01
	c-3.18,0-15.19-4.28-24.75-8.01C32.54,146.27,44.55,141.99,47.73,141.99z M222.32,90.55c3.44,0,6.67-1.34,9.1-3.77
	c4.29-4.29,14.17-27.64,15.28-30.29l2.3-5.48l-5.48,2.3c-2.65,1.11-26.01,10.99-30.29,15.28c-2.43,2.43-3.77,5.66-3.77,9.1
	c0,3.44,1.34,6.67,3.77,9.1C215.65,89.21,218.88,90.55,222.32,90.55z M216.65,72.02c2.25-2.25,13.77-7.71,23.16-11.84
	c-4.12,9.39-9.59,20.92-11.84,23.16c-1.51,1.51-3.52,2.35-5.66,2.35c-2.14,0-4.15-0.83-5.66-2.35c-1.51-1.51-2.35-3.52-2.35-5.66
	C214.31,75.54,215.14,73.53,216.65,72.02z M77.68,209.45c-3.44,0-6.67,1.34-9.1,3.77c-4.29,4.29-14.17,27.64-15.28,30.29l-2.3,5.48
	l5.48-2.3c2.65-1.11,26.01-10.99,30.29-15.28c2.43-2.43,3.77-5.66,3.77-9.1c0-3.44-1.34-6.67-3.77-9.1
	C84.35,210.79,81.12,209.45,77.68,209.45z M83.35,227.98c-2.25,2.25-13.77,7.71-23.16,11.84c4.12-9.39,9.59-20.92,11.84-23.16
	c1.51-1.51,3.52-2.35,5.66-2.35c2.14,0,4.15,0.83,5.66,2.35c1.51,1.51,2.35,3.52,2.35,5.66C85.69,224.46,84.86,226.47,83.35,227.98z
	 M231.41,213.22c-2.43-2.43-5.66-3.77-9.1-3.77s-6.67,1.34-9.1,3.77c-2.43,2.43-3.77,5.66-3.77,9.1c0,3.44,1.34,6.67,3.77,9.1
	c4.29,4.29,27.64,14.17,30.29,15.28l5.48,2.3l-2.3-5.48C245.58,240.86,235.7,217.51,231.41,213.22z M216.65,227.98
	c-1.51-1.51-2.35-3.52-2.35-5.66c0-2.14,0.83-4.15,2.35-5.66c1.51-1.51,3.52-2.35,5.66-2.35c2.14,0,4.15,0.83,5.66,2.35
	c2.25,2.25,7.71,13.77,11.84,23.16C230.42,235.69,218.9,230.22,216.65,227.98z M68.59,86.78c2.43,2.43,5.66,3.77,9.1,3.77
	c3.44,0,6.67-1.34,9.1-3.77c2.43-2.43,3.77-5.66,3.77-9.1c0-3.44-1.34-6.67-3.77-9.1c-4.29-4.29-27.64-14.17-30.29-15.28l-5.48-2.3
	l2.3,5.48C54.42,59.14,64.3,82.49,68.59,86.78z M83.35,72.02c1.51,1.51,2.35,3.52,2.35,5.66c0,2.14-0.83,4.15-2.35,5.66
	c-1.51,1.51-3.52,2.35-5.66,2.35c-2.14,0-4.15-0.83-5.66-2.35c-2.25-2.25-7.71-13.77-11.84-23.16
	C69.58,64.31,81.1,69.78,83.35,72.02z M233.98,170.86c-0.19-0.08-0.39-0.15-0.58-0.22c1.64-6.62,2.51-13.53,2.51-20.64
	c0-7.11-0.88-14.03-2.51-20.64c0.19-0.07,0.39-0.14,0.58-0.22c5.6-2.32,23.67-20.12,25.71-22.14l4.22-4.18l-5.94,0.03
	c-2.87,0.01-28.23,0.2-33.84,2.52c-0.2,0.08-0.39,0.17-0.59,0.27c-7.22-11.92-17.26-21.96-29.18-29.18
	c0.09-0.19,0.18-0.39,0.27-0.59c2.32-5.6,2.51-30.96,2.52-33.84l0.03-5.94L193,40.31c-2.02,2.04-19.82,20.11-22.14,25.71
	c-0.08,0.19-0.15,0.39-0.22,0.58c-6.62-1.64-13.53-2.51-20.64-2.51c-7.11,0-14.03,0.88-20.64,2.51c-0.07-0.19-0.14-0.39-0.22-0.58
	c-2.32-5.6-20.12-23.67-22.14-25.71l-4.18-4.22l0.03,5.94c0.01,2.87,0.2,28.23,2.52,33.84c0.08,0.2,0.17,0.39,0.27,0.59
	c-11.92,7.22-21.96,17.26-29.18,29.18c-0.19-0.09-0.39-0.18-0.59-0.27c-5.6-2.32-30.96-2.51-33.84-2.52l-5.94-0.03l4.22,4.18
	c2.04,2.02,20.11,19.82,25.71,22.14c0.19,0.08,0.39,0.15,0.58,0.22c-1.64,6.62-2.51,13.53-2.51,20.64c0,7.11,0.88,14.03,2.51,20.64
	c-0.19,0.07-0.39,0.14-0.58,0.22c-5.6,2.32-23.67,20.12-25.71,22.14l-4.22,4.18l5.94-0.03c2.87-0.01,28.23-0.2,33.84-2.52
	c0.2-0.08,0.39-0.17,0.59-0.27c7.22,11.92,17.26,21.96,29.18,29.18c-0.09,0.19-0.18,0.39-0.27,0.59c-2.32,5.6-2.51,30.96-2.52,33.84
	l-0.03,5.94l4.18-4.22c2.02-2.04,19.82-20.11,22.14-25.71c0.08-0.19,0.15-0.39,0.22-0.58c6.62,1.64,13.53,2.51,20.64,2.51
	c7.11,0,14.03-0.88,20.64-2.51c0.07,0.19,0.14,0.39,0.22,0.58c2.32,5.6,20.12,23.67,22.14,25.71l4.18,4.22l-0.03-5.94
	c-0.01-2.87-0.2-28.23-2.52-33.84c-0.08-0.2-0.17-0.39-0.27-0.59c11.92-7.22,21.96-17.26,29.18-29.18c0.19,0.09,0.39,0.18,0.59,0.27
	c5.6,2.32,30.96,2.51,33.84,2.52l5.94,0.03l-4.22-4.18C257.65,190.98,239.59,173.18,233.98,170.86z M226,109.85
	c2.93-1.22,15.67-1.86,25.93-2.07c-7.4,7.1-16.87,15.65-19.8,16.87c-0.01,0-0.02,0.01-0.02,0.01c-0.58-1.87-1.22-3.71-1.92-5.53
	c-0.03-0.07-0.06-0.15-0.08-0.22c-0.17-0.42-0.34-0.84-0.51-1.27c-0.07-0.18-0.14-0.35-0.21-0.53v0c-0.04-0.09-0.07-0.17-0.11-0.25
	c-0.11-0.26-0.22-0.53-0.34-0.79c-0.18-0.42-0.36-0.83-0.54-1.24c-0.06-0.13-0.12-0.27-0.18-0.4c-0.7-1.54-1.44-3.07-2.23-4.57
	C225.98,109.86,225.99,109.86,226,109.85z M175.35,67.88c1.22-2.93,9.77-12.4,16.87-19.8C192,58.33,191.36,71.07,190.15,74
	c0,0.01-0.01,0.02-0.01,0.03c-1.5-0.79-3.03-1.53-4.57-2.23c-0.13-0.06-0.27-0.12-0.4-0.18c-0.41-0.19-0.83-0.37-1.24-0.54
	c-0.26-0.11-0.52-0.23-0.79-0.34c-0.09-0.04-0.17-0.07-0.25-0.11h0c-0.17-0.07-0.35-0.14-0.53-0.21c-0.42-0.17-0.84-0.34-1.27-0.51
	c-0.07-0.03-0.15-0.06-0.22-0.08c-1.81-0.7-3.66-1.34-5.53-1.92C175.34,67.89,175.35,67.88,175.35,67.88z M124.65,67.88
	c0,0.01,0.01,0.02,0.01,0.02c-1.87,0.58-3.71,1.22-5.53,1.92c-0.07,0.03-0.15,0.06-0.22,0.08c-0.42,0.16-0.84,0.34-1.26,0.51
	c-0.18,0.07-0.35,0.14-0.53,0.21h0c-0.09,0.04-0.17,0.07-0.26,0.11c-0.26,0.11-0.53,0.22-0.79,0.34c-0.42,0.18-0.83,0.36-1.24,0.55
	c-0.13,0.06-0.27,0.12-0.4,0.18c-1.54,0.7-3.07,1.44-4.57,2.23c0-0.01-0.01-0.02-0.01-0.03c-1.22-2.93-1.86-15.67-2.07-25.93
	C114.88,55.48,123.43,64.94,124.65,67.88z M48.08,107.78c10.26,0.22,22.99,0.86,25.93,2.07c0.01,0,0.02,0.01,0.03,0.01
	c-0.79,1.5-1.53,3.03-2.23,4.57c-0.06,0.13-0.12,0.27-0.18,0.4c-0.19,0.41-0.37,0.83-0.55,1.25c-0.11,0.26-0.23,0.52-0.34,0.79
	c-0.04,0.09-0.07,0.17-0.11,0.26v0c-0.07,0.17-0.14,0.35-0.21,0.53c-0.17,0.42-0.34,0.84-0.51,1.27c-0.03,0.07-0.05,0.14-0.08,0.21
	c-0.7,1.81-1.35,3.66-1.92,5.53c-0.01,0-0.02-0.01-0.02-0.01C64.94,123.43,55.48,114.88,48.08,107.78z M74,190.15
	c-2.93,1.22-15.67,1.86-25.93,2.07c7.4-7.1,16.87-15.65,19.8-16.87c0.01,0,0.02-0.01,0.02-0.01c0.58,1.87,1.22,3.71,1.92,5.53
	c0.03,0.07,0.05,0.14,0.08,0.21c0.17,0.42,0.34,0.85,0.51,1.27c0.07,0.18,0.14,0.35,0.21,0.53v0c0.04,0.09,0.07,0.17,0.11,0.26
	c0.11,0.26,0.22,0.52,0.34,0.78c0.18,0.42,0.36,0.83,0.55,1.25c0.06,0.13,0.12,0.27,0.18,0.4c0.7,1.54,1.44,3.07,2.23,4.57
	C74.02,190.14,74.01,190.14,74,190.15z M124.65,232.12c-1.22,2.93-9.77,12.4-16.87,19.8c0.22-10.26,0.86-22.99,2.07-25.93
	c0-0.01,0.01-0.02,0.01-0.03c1.5,0.79,3.03,1.53,4.57,2.23c0.13,0.06,0.27,0.12,0.4,0.18c0.41,0.19,0.83,0.37,1.25,0.55
	c0.26,0.11,0.52,0.23,0.78,0.34c0.09,0.04,0.17,0.07,0.26,0.11h0c0.18,0.07,0.35,0.14,0.53,0.21c0.42,0.17,0.84,0.34,1.27,0.51
	c0.07,0.03,0.14,0.05,0.21,0.08c1.81,0.7,3.66,1.35,5.53,1.92C124.66,232.11,124.65,232.12,124.65,232.12z M175.35,232.12
	c0-0.01-0.01-0.02-0.01-0.02c1.87-0.58,3.71-1.22,5.53-1.92c0.07-0.03,0.14-0.05,0.21-0.08c0.42-0.17,0.85-0.34,1.27-0.51
	c0.18-0.07,0.35-0.14,0.53-0.21h0c0.09-0.04,0.17-0.07,0.26-0.11c0.26-0.11,0.52-0.22,0.79-0.34c0.42-0.18,0.83-0.36,1.25-0.55
	c0.13-0.06,0.27-0.12,0.4-0.18c1.54-0.7,3.07-1.44,4.57-2.23c0,0.01,0.01,0.02,0.01,0.03c1.22,2.93,1.86,15.67,2.07,25.93
	C185.12,244.52,176.57,235.06,175.35,232.12z M225.73,178.89c-0.23,0.59-0.46,1.18-0.7,1.76c-0.08,0.19-0.15,0.37-0.23,0.56
	c-0.2,0.49-0.42,0.98-0.63,1.47c-8.17,18.47-23.04,33.33-41.51,41.5c-0.48,0.21-0.96,0.42-1.44,0.62c-0.19,0.08-0.38,0.15-0.57,0.23
	c-0.58,0.24-1.17,0.47-1.76,0.7c-0.09,0.03-0.18,0.07-0.26,0.1c-2.25,0.85-4.56,1.61-6.88,2.26l-0.15,0.04
	c-6.88,1.9-14.12,2.92-21.59,2.92c-7.47,0-14.71-1.02-21.59-2.92l-0.15-0.04c-2.33-0.65-4.63-1.41-6.88-2.26
	c-0.09-0.03-0.18-0.07-0.26-0.1c-0.59-0.23-1.18-0.46-1.76-0.7c-0.19-0.08-0.37-0.15-0.56-0.23c-0.49-0.2-0.98-0.42-1.47-0.63
	c-18.47-8.17-33.33-23.04-41.5-41.51c-0.21-0.48-0.42-0.96-0.62-1.44c-0.08-0.19-0.15-0.38-0.23-0.57c-0.24-0.58-0.47-1.17-0.7-1.76
	c-0.03-0.09-0.07-0.18-0.1-0.26c-0.85-2.25-1.61-4.56-2.26-6.88l-0.04-0.15c-1.9-6.88-2.92-14.12-2.92-21.59
	c0-7.47,1.02-14.71,2.92-21.59l0.04-0.15c0.65-2.33,1.41-4.63,2.26-6.88c0.03-0.09,0.07-0.18,0.1-0.26c0.23-0.59,0.46-1.18,0.7-1.76
	c0.08-0.19,0.15-0.37,0.23-0.56c0.2-0.49,0.42-0.98,0.63-1.47c8.17-18.47,23.04-33.33,41.51-41.5c0.48-0.21,0.96-0.42,1.44-0.62
	c0.19-0.08,0.38-0.15,0.57-0.23c0.58-0.24,1.17-0.47,1.76-0.7c0.09-0.03,0.18-0.07,0.26-0.1c2.25-0.85,4.56-1.61,6.88-2.26
	l0.15-0.04c6.88-1.9,14.12-2.92,21.59-2.92c7.47,0,14.71,1.02,21.59,2.92l0.15,0.04c2.33,0.65,4.63,1.41,6.88,2.26
	c0.09,0.03,0.18,0.07,0.26,0.1c0.59,0.23,1.18,0.46,1.76,0.7c0.19,0.08,0.37,0.15,0.56,0.23c0.49,0.2,0.98,0.42,1.47,0.63
	c18.47,8.17,33.33,23.04,41.5,41.51c0.21,0.48,0.42,0.96,0.62,1.44c0.08,0.19,0.15,0.38,0.23,0.57c0.24,0.58,0.47,1.17,0.7,1.76
	c0.03,0.09,0.07,0.18,0.1,0.26c0.85,2.25,1.61,4.56,2.26,6.88l0.04,0.15c1.9,6.88,2.92,14.12,2.92,21.59
	c0,7.47-1.02,14.71-2.92,21.59l-0.04,0.15c-0.65,2.33-1.41,4.63-2.26,6.88C225.8,178.72,225.76,178.81,225.73,178.89z M226,190.15
	c-0.01,0-0.02-0.01-0.03-0.01c0.79-1.5,1.53-3.03,2.23-4.57c0.06-0.13,0.12-0.27,0.18-0.4c0.19-0.41,0.37-0.83,0.55-1.24
	c0.11-0.26,0.23-0.52,0.34-0.79c0.04-0.09,0.07-0.17,0.11-0.26v0c0.07-0.17,0.14-0.35,0.21-0.53c0.17-0.42,0.34-0.84,0.51-1.26
	c0.03-0.07,0.06-0.15,0.08-0.22c0.7-1.81,1.34-3.66,1.92-5.53c0.01,0,0.02,0.01,0.02,0.01c2.93,1.22,12.4,9.77,19.8,16.87
	C241.67,192,228.93,191.36,226,190.15z M150,157.39c-4.08,0-7.39-3.31-7.39-7.39c0-4.08,3.31-7.39,7.39-7.39
	c4.08,0,7.39,3.31,7.39,7.39C157.39,154.08,154.08,157.39,150,157.39z M129.07,156.16c-3.4,0-6.16-2.76-6.16-6.16
	s2.76-6.16,6.16-6.16c3.4,0,6.16,2.76,6.16,6.16S132.47,156.16,129.07,156.16z M115.53,150c0,2.72-2.2,4.92-4.92,4.92
	c-2.72,0-4.92-2.2-4.92-4.92c0-2.72,2.2-4.92,4.92-4.92C113.32,145.08,115.53,147.28,115.53,150z M177.09,150
	c0,3.4-2.76,6.16-6.16,6.16c-3.4,0-6.16-2.76-6.16-6.16s2.76-6.16,6.16-6.16C174.33,143.84,177.09,146.6,177.09,150z M194.32,150
	c0,2.72-2.2,4.92-4.92,4.92c-2.72,0-4.92-2.2-4.92-4.92c0-2.72,2.2-4.92,4.92-4.92C192.12,145.08,194.32,147.28,194.32,150z
	 M144.87,171.2c-1.7,2.94-5.46,3.95-8.41,2.25c-2.94-1.7-3.95-5.46-2.25-8.41c1.7-2.94,5.46-3.95,8.41-2.25
	C145.56,164.5,146.57,168.26,144.87,171.2z M134.57,186.58c-1.36,2.36-4.37,3.16-6.73,1.8c-2.36-1.36-3.16-4.37-1.8-6.73
	c1.36-2.36,4.37-3.16,6.73-1.8C135.12,181.22,135.93,184.23,134.57,186.58z M155.13,128.8c1.7-2.94,5.47-3.95,8.41-2.25
	c2.94,1.7,3.95,5.46,2.25,8.41c-1.7,2.94-5.46,3.95-8.41,2.25C154.44,135.5,153.43,131.74,155.13,128.8z M165.43,113.42
	c1.36-2.36,4.37-3.16,6.73-1.8c2.36,1.36,3.16,4.37,1.8,6.73c-1.36,2.36-4.37,3.16-6.73,1.8
	C164.88,118.78,164.07,115.77,165.43,113.42z M163.54,173.46c-2.94,1.7-6.71,0.69-8.41-2.25c-1.7-2.94-0.69-6.71,2.25-8.41
	c2.94-1.7,6.71-0.69,8.41,2.25C167.5,167.99,166.49,171.76,163.54,173.46z M173.96,181.66c1.36,2.36,0.55,5.37-1.8,6.73
	c-2.36,1.36-5.37,0.55-6.73-1.8c-1.36-2.36-0.55-5.37,1.8-6.73C169.59,178.5,172.6,179.3,173.96,181.66z M136.46,126.54
	c2.94-1.7,6.71-0.69,8.41,2.25c1.7,2.94,0.69,6.71-2.25,8.41c-2.94,1.7-6.71,0.69-8.41-2.25
	C132.5,132.01,133.51,128.24,136.46,126.54z M126.04,118.34c-1.36-2.36-0.55-5.37,1.8-6.73c2.36-1.36,5.37-0.55,6.73,1.8
	c1.36,2.36,0.55,5.37-1.8,6.73C130.41,121.5,127.4,120.7,126.04,118.34z"/>
</svg>
